<?xml version="1.0" encoding="UTF-8"?>
<svg version="1.1" xmlns="http://www.w3.org/2000/svg" width="1024" height="1024">
<path d="M0 0 C0.86625 0.763125 1.7325 1.52625 2.625 2.3125 C6.15851455 5.3493358 9.81922904 8.20818073 13.5 11.0625 C19.36571384 15.62419564 25.00703146 20.39964316 30.59472656 25.29638672 C34.25656866 28.50217172 37.9609062 31.63143146 41.75 34.6875 C46.47441128 38.51336054 50.9705208 42.54664377 55.4453125 46.66015625 C57.62697815 48.65834848 59.83011309 50.62148889 62.0625 52.5625 C65.88735286 55.8887977 69.6563688 59.27430085 73.41796875 62.671875 C75.14507623 64.22914589 76.8768935 65.78120856 78.61328125 67.328125 C82.93342863 71.18282403 87.13871289 75.08718387 91.19024658 79.22268677 C92.9610959 80.96179327 94.79144704 82.57572339 96.67871094 84.18701172 C101.14424277 88.07257944 105.33709909 92.19275702 109.515625 96.3828125 C110.68300201 97.54875443 110.68300201 97.54875443 111.8739624 98.73825073 C113.50541935 100.36903175 115.13563252 102.00105793 116.76464844 103.63427734 C119.25342958 106.12843699 121.74753274 108.6171854 124.2421875 111.10546875 C125.83365424 112.69759595 127.42481094 114.29003315 129.015625 115.8828125 C129.75733948 116.62250275 130.49905396 117.36219299 131.26324463 118.1242981 C134.73417827 121.61098263 137.9959491 125.0931727 141 129 C142.65253115 130.6806833 144.32126526 132.34548943 146 134 C148.45925759 136.54214602 150.88752654 139.11268267 153.3125 141.6875 C153.95767578 142.36361328 154.60285156 143.03972656 155.26757812 143.73632812 C155.87666016 144.38408203 156.48574219 145.03183594 157.11328125 145.69921875 C157.66798096 146.28533936 158.22268066 146.87145996 158.79418945 147.4753418 C160 149 160 149 160 151 C160.66 151 161.32 151 162 151 C163.3327188 152.46690559 164.58913869 154.00322501 165.8125 155.5625 C169.60451808 160.30710233 173.50191493 164.92793241 177.5 169.5 C182.14768946 174.82418348 186.68115024 180.21195548 191.09765625 185.73046875 C192.96088025 187.95332942 194.92003169 189.98057131 197 192 C198.9829823 193.9829823 199.79378573 195.51218307 201 198 C201.66 198.99 202.32 199.98 203 201 C204.32 201 205.64 201 207 201 C206.89042969 201.67804688 206.78085937 202.35609375 206.66796875 203.0546875 C207.15962853 207.41599897 209.55821037 209.82540965 212.3125 213.125 C212.81201172 213.74503906 213.31152344 214.36507812 213.82617188 215.00390625 C216.10430845 217.81008773 218.41632388 220.46960002 221 223 C223 225 223 225 223 227 C224.39447067 229.08716869 225.82389695 231.10645205 227.3125 233.125 C228.2239827 234.37924545 229.13408327 235.63449621 230.04296875 236.890625 C230.5229834 237.55384766 231.00299805 238.21707031 231.49755859 238.90039062 C234.0904266 242.52383307 236.60770391 246.19883053 239.125 249.875 C239.61009033 250.58285645 240.09518066 251.29071289 240.5949707 252.02001953 C241.73106078 253.67927385 242.86569936 255.33952187 244 257 C244.99 256.67 245.98 256.34 247 256 C246.90589844 256.67804688 246.81179688 257.35609375 246.71484375 258.0546875 C247.11356091 262.17294415 249.22479368 264.84692867 251.5625 268.125 C252.48152503 269.4536971 253.39948597 270.78313081 254.31640625 272.11328125 C254.99920654 273.09482178 254.99920654 273.09482178 255.69580078 274.09619141 C258.11909332 277.63359972 260.36123492 281.28525519 262.625 284.92578125 C263.9671813 287.09963252 263.9671813 287.09963252 266 289 C266.82437791 290.37676718 267.6120358 291.77577324 268.375 293.1875 C268.81199219 293.98671875 269.24898437 294.7859375 269.69921875 295.609375 C270.12847656 296.39828125 270.55773437 297.1871875 271 298 C273.57258702 302.80196395 273.57258702 302.80196395 277 307 C278.14412434 309.19602707 279.24141611 311.39398655 280.3125 313.625 C282.34708483 317.79779514 284.41490618 321.84358328 286.9375 325.75 C289 329 289 329 289 331 C289.99 331.33 290.98 331.66 292 332 C292 332.99 292 333.98 292 335 C292.99132209 337.22771079 294.02553972 339.37469243 295.140625 341.5390625 C295.46407898 342.17935394 295.78753296 342.81964539 296.12078857 343.4793396 C297.15822453 345.53080765 298.20365872 347.57806177 299.25 349.625 C311 372.72211132 311 372.72211132 311 376 C311.66 376.33 312.32 376.66 313 377 C313.72048651 379.06223085 314.4289963 381.12923824 315.08496094 383.21289062 C316.08376741 386.25514641 317.2163215 389.22118608 318.3828125 392.203125 C323.36242797 404.98055996 328.06384042 417.77380469 332.125 430.875 C332.50285645 432.08575195 332.88071289 433.29650391 333.27001953 434.54394531 C336.0907878 443.80487766 336.0907878 443.80487766 336.6171875 448.2578125 C336.80667969 449.61519531 336.80667969 449.61519531 337 451 C337.66 451.33 338.32 451.66 339 452 C339.26414277 453.85544193 339.51491394 455.71359846 339.70458984 457.578125 C340.01678539 460.13761243 340.50515899 462.60516636 341.05078125 465.125 C343.65656954 477.21988893 345.72545706 489.29055628 347.25 501.5625 C347.41282471 502.85607422 347.57564941 504.14964844 347.7434082 505.48242188 C356.4936385 578.4583202 341.97755414 648.64160523 309 714 C308.63841797 714.72429199 308.27683594 715.44858398 307.90429688 716.19482422 C288.06242826 755.73063499 259.15506586 789.8432685 228.125 821 C227.3405249 821.78914795 226.5560498 822.5782959 225.74780273 823.39135742 C220.9931993 828.13285305 216.10533603 832.64005641 211 837 C209.90583191 837.95003953 208.81206189 838.90053777 207.71875 839.8515625 C195.16296708 850.69484178 182.4599673 861.23947163 168.83349609 870.71679688 C166.89552346 872.07311967 164.97224123 873.44851954 163.05078125 874.828125 C136.21361669 894.05062532 107.93400319 911.14245481 79 927 C77.53888367 927.80827056 76.07792504 928.61682632 74.6171875 929.42578125 C66.28965211 934 66.28965211 934 64 934 C63.67 934.66 63.34 935.32 63 936 C60.8439226 937.10524021 58.64975777 938.13700139 56.4375 939.125 C55.23996094 939.66382813 54.04242187 940.20265625 52.80859375 940.7578125 C51.41833984 941.37269531 51.41833984 941.37269531 50 942 C50 942.66 50 943.32 50 944 C49.21753906 944.06316406 48.43507813 944.12632812 47.62890625 944.19140625 C42.6194222 945.30762067 38.47146922 947.57943742 33.9375 949.9375 C31.97981534 950.93226719 30.02146365 951.9257226 28.0625 952.91796875 C27.06347656 953.42634277 26.06445312 953.9347168 25.03515625 954.45849609 C20.18492505 956.9218455 15.32256705 959.35647691 10.4375 961.75 C9.12736938 962.41310181 9.12736938 962.41310181 7.79077148 963.08959961 C6.56209351 963.68720093 6.56209351 963.68720093 5.30859375 964.296875 C4.59501709 964.65104492 3.88144043 965.00521484 3.14624023 965.37011719 C-1.13912474 966.62779454 -4.84002701 964.77802846 -8.73828125 962.99609375 C-10.07862427 962.38652832 -10.07862427 962.38652832 -11.44604492 961.76464844 C-12.3919751 961.32668945 -13.33790527 960.88873047 -14.3125 960.4375 C-15.30161377 959.9827832 -16.29072754 959.52806641 -17.30981445 959.05957031 C-25.63312855 955.21212158 -33.84568264 951.19153442 -42 947 C-42.9384375 946.52111328 -43.876875 946.04222656 -44.84375 945.54882812 C-59.61314929 938.00720361 -74.21617592 930.21423691 -88.70776367 922.15429688 C-89.30030945 921.82480042 -89.89285522 921.49530396 -90.50335693 921.15582275 C-92.10707746 920.26311302 -93.70970648 919.36844323 -95.31225586 918.47363281 C-96.19921143 917.98733398 -97.08616699 917.50103516 -98 917 C-98.71744385 916.58331055 -99.4348877 916.16662109 -100.17407227 915.73730469 C-102.17735454 914.6988768 -102.17735454 914.6988768 -105 916 C-105.1249585 915.09048584 -105.1249585 915.09048584 -105.25244141 914.16259766 C-106.23742842 911.31314795 -107.34385473 910.83638884 -109.9609375 909.3984375 C-110.81147705 908.91753662 -111.6620166 908.43663574 -112.53833008 907.94116211 C-113.47443115 907.42432861 -114.41053223 906.90749512 -115.375 906.375 C-124.41765592 901.21066039 -133.17147966 895.73895672 -141.8125 889.9375 C-142.67426346 889.35921951 -142.67426346 889.35921951 -143.55343628 888.76925659 C-161.88964628 876.44223792 -180.01381681 863.78275246 -196.92578125 849.53515625 C-197.89902344 848.71917969 -198.87226563 847.90320313 -199.875 847.0625 C-200.75929688 846.31097656 -201.64359375 845.55945313 -202.5546875 844.78515625 C-204.79905937 842.88822848 -204.79905937 842.88822848 -207.1328125 842.55859375 C-210.00138074 841.70042375 -210.51832534 839.54153285 -212 837 C-214.00617812 834.98548596 -216.00821739 833.07579577 -218.125 831.1875 C-218.69887451 830.66559082 -219.27274902 830.14368164 -219.86401367 829.60595703 C-224.01250779 825.84365211 -228.22312388 822.15303282 -232.48828125 818.5234375 C-234 817 -234 817 -234 815 C-234.99 814.67 -235.98 814.34 -237 814 C-237 813.34 -237 812.68 -237 812 C-237.66 812 -238.32 812 -239 812 C-239 811.34 -239 810.68 -239 810 C-239.66 810 -240.32 810 -241 810 C-242.5859375 808.390625 -242.5859375 808.390625 -244.375 806.25 C-246.33757727 803.93096298 -248.2588295 801.74780716 -250.4375 799.625 C-252 798 -252 798 -252 796 C-252.66 796 -253.32 796 -254 796 C-255.7421875 794.12109375 -255.7421875 794.12109375 -257.875 791.4375 C-258.68195313 790.426875 -259.48890625 789.41625 -260.3203125 788.375 C-260.75504883 787.82585938 -261.18978516 787.27671875 -261.63769531 786.7109375 C-263.01321463 784.98340356 -264.4063921 783.27163464 -265.8046875 781.5625 C-275.83537075 769.25234524 -285.45842834 756.53908465 -293.73046875 742.96875 C-294.9793957 740.87989844 -294.9793957 740.87989844 -297 739 C-297.919905 737.45112491 -298.7962359 735.87619567 -299.6484375 734.2890625 C-300.17920898 733.30067383 -300.70998047 732.31228516 -301.25683594 731.29394531 C-304.07611007 725.96654383 -306.87219482 720.62786266 -309.64160156 715.27441406 C-310.62810625 713.36900033 -311.6186763 711.46573576 -312.609375 709.5625 C-322 691.46489926 -322 691.46489926 -322 688 C-322.99 688 -323.98 688 -325 688 C-326.65956108 686.08512183 -327.86788359 684.26423282 -329 682 C-327.68 681.67 -326.36 681.34 -325 681 C-325.99 680.67 -326.98 680.34 -328 680 C-327.34 680 -326.68 680 -326 680 C-326.34786708 678.02463255 -326.34786708 678.02463255 -327 676 C-327.66 675.67 -328.32 675.34 -329 675 C-329.67578125 673.2421875 -329.67578125 673.2421875 -330.3125 670.875 C-331.5539621 666.46718255 -332.95248223 662.14456105 -334.4375 657.8125 C-336.99044001 650.29776637 -339.04716784 642.6913222 -341 635 C-341.66 635.33 -342.32 635.66 -343 636 C-343.33 634.35 -343.66 632.7 -344 631 C-343.34 631 -342.68 631 -342 631 C-342.15146484 630.30962646 -342.30292969 629.61925293 -342.45898438 628.90795898 C-343.14680436 625.75271709 -343.82348402 622.59518404 -344.5 619.4375 C-344.73847656 618.35146484 -344.97695313 617.26542969 -345.22265625 616.14648438 C-346.39026001 610.65874671 -347.32214907 605.61344746 -347 600 C-347.66 599.67 -348.32 599.34 -349 599 C-349.06058594 597.94683594 -349.12117187 596.89367187 -349.18359375 595.80859375 C-349.26819568 594.35156056 -349.35283307 592.89452942 -349.4375 591.4375 C-349.47681641 590.75236328 -349.51613281 590.06722656 -349.55664062 589.36132812 C-349.76627065 585.76536686 -349.98745607 582.17196973 -350.24951172 578.5793457 C-356.00018634 498.68864442 -335.81038024 420.87108847 -269 292 C-268.30173096 290.86183838 -268.30173096 290.86183838 -267.58935547 289.70068359 C-251.72772 263.94412026 -234.32544199 239.06078966 -216 215 C-215.54850586 214.40670898 -215.09701172 213.81341797 -214.63183594 213.20214844 C-209.67831119 206.70315313 -204.65729752 200.2800259 -199.3984375 194.0234375 C-197.71572543 191.99861866 -197.71572543 191.99861866 -198 189 C-196.34467377 187.98133771 -194.67739862 186.98189187 -193 186 C-192.67 185.01 -192.34 184.02 -192 183 C-190.37026229 181.29720508 -188.69790079 179.63483591 -187 178 C-182.052566 172.7413036 -177.26094 167.38867499 -172.75 161.75 C-167.90047666 155.7396865 -162.63088121 150.16516137 -157.3359375 144.55078125 C-154.72241125 141.77910241 -152.15670131 138.97195148 -149.625 136.125 C-138.61253979 123.85340187 -127.14440469 112.0441761 -115.5 100.375 C-114.93983185 99.81224365 -114.3796637 99.2494873 -113.80252075 98.66967773 C-108.22460897 93.07142763 -102.63673372 87.54082416 -96.62304688 82.40478516 C-94.47023198 80.54147335 -92.48183014 78.54280953 -90.5 76.5 C-87.19013302 73.15066271 -83.79253051 70.00074044 -80.21875 66.9375 C-78.01543714 65.01348032 -75.86578797 63.0378989 -73.72167969 61.04833984 C-68.39522911 56.10670922 -62.95659066 51.41172587 -57.27734375 46.875 C-55.02840874 45.09705526 -55.02840874 45.09705526 -53.31640625 43.25 C-52 42 -52 42 -50 42 C-50 41.34 -50 40.68 -50 40 C-48.51261765 38.64617851 -46.95569449 37.36860114 -45.375 36.125 C-40.83920877 32.49869904 -36.39379075 28.79688703 -32 25 C-7.03422339 3.5171117 -7.03422339 3.5171117 0 0 Z M-325 683 C-324 685 -324 685 -324 685 Z M-324 685 C-323 687 -323 687 -323 687 Z " fill="#136B2D" transform="translate(513,24)"/>
<path d="M0 0 C6.27843017 5.25636014 12.26166261 10.82100804 18.26074219 16.39013672 C19.9734091 17.97538737 21.69248016 19.55334657 23.4140625 21.12890625 C28.9749683 26.22390925 34.45869566 31.34805469 39.70703125 36.76953125 C41.59364134 38.60471755 43.50948414 40.30491525 45.50830078 42.01269531 C50.61104929 46.46644492 55.37798854 51.23441064 60.16015625 56.02734375 C61.1182986 56.98481025 62.07658916 57.94212845 63.03501892 58.89930725 C65.03091287 60.89373747 67.02501452 62.88993741 69.01782227 64.88745117 C71.55141863 67.42674399 74.08947983 69.96151903 76.62891483 72.49497128 C78.60490703 74.46732184 80.57847679 76.44208263 82.55135918 78.41754341 C83.93410599 79.80126628 85.3188393 81.18300314 86.70362854 82.56468201 C91.16755283 87.04507204 95.49825366 91.5784078 99.60765076 96.38746643 C101.31140467 98.36064981 103.12507879 100.18973124 105 102 C108.19261312 105.1498003 111.17161279 108.41219489 114.09375 111.8125 C116.30945648 114.35511399 118.59098592 116.83110198 120.875 119.3125 C125.00226163 123.83253729 128.88590135 128.49795132 132.7265625 133.26171875 C135.0269647 136.0324781 137.42521472 138.673378 139.875 141.3125 C144.05912338 145.86410417 147.90989634 150.58255749 151.68969727 155.46728516 C154.63136219 159.26776688 157.63186729 163.00847118 160.68945312 166.71630859 C179.94210676 190.09866802 197.05389159 215.27487358 213 241 C213.41266113 241.66338379 213.82532227 242.32676758 214.25048828 243.01025391 C248.93379759 299.00481342 294.96221278 381.07158717 292 450 C286.47833557 452.33944204 280.88451372 454.39864608 275.20898438 456.32763672 C258.62365609 461.98347775 242.60855527 468.84711219 227.06152344 476.93017578 C224.83033917 478.08804521 222.5910033 479.22928269 220.3515625 480.37109375 C209.88787407 485.74731212 199.85912615 491.58688891 190 498 C188.51886719 498.94746094 188.51886719 498.94746094 187.0078125 499.9140625 C168.41359908 512.01832885 150.64114464 525.7270442 134.37109375 540.8125 C132.30543787 542.71821218 130.20267421 544.5543201 128.0625 546.375 C123.95592478 549.93234191 120.17587071 553.79359028 116.36279297 557.65869141 C113.72870189 560.31624878 111.07812444 562.87369838 108.1875 565.25 C105.00416156 567.87837387 102.40986111 570.86588581 99.7421875 574.0078125 C98.10926357 575.87505735 96.41070861 577.59262396 94.625 579.3125 C90.83493676 583.03473213 87.5671222 587.12514174 84.2421875 591.26171875 C82.28928101 593.6467143 80.27558218 595.92180087 78.1875 598.1875 C72.3107524 604.74812947 67.17470264 611.88306609 62 619 C61.43974121 619.76779785 60.87948242 620.5355957 60.30224609 621.32666016 C44.98611951 642.42474354 31.35921935 665.0348518 21 689 C20.67 689 20.34 689 20 689 C6.79155712 609.76792001 6.79155712 609.76792001 25.46679592 581.72084713 C43.67798465 556.69767475 68.82721215 535.85292316 93.1155405 516.91950893 C97.34904787 513.56801298 100.93304656 510.02304802 104.39763546 505.87790108 C107.07931564 502.73508933 110.05184208 499.88971427 113 497 C113.67071533 496.278125 114.34143066 495.55625 115.0324707 494.8125 C117.29310502 492.51699019 119.71799377 490.81117807 122.39282227 489.0222168 C129.24070846 483.99507386 135.40611164 478.48535707 136.92156982 469.76861572 C138.26762243 458.48573859 137.55452925 446.94374525 137.05834961 435.62353516 C136.73981287 428.21417748 136.52747554 420.80504478 136.40506172 413.38998985 C136.34099135 410.81564169 136.20534499 408.2521473 136.06297302 405.68110657 C135.65954762 394.44338105 135.65954762 394.44338105 139.38937378 390.42715454 C142.19759823 388.63030155 144.93363424 387.29156951 148 386 C159.7052541 377.20589718 167.90105945 364.3978496 171 350 C172.64667939 330.91310986 169.58127589 315.33347644 157.453125 300.05078125 C148.32698343 289.99847185 134.92991893 283.59966598 121.484375 282.58984375 C107.19221394 281.94310026 94.36492407 284.84733214 83 294 C82.24203125 294.58523438 81.4840625 295.17046875 80.703125 295.7734375 C69.90556255 304.65062811 62.6930464 318.0793963 61 332 C59.88732583 349.37333353 63.78953225 363.90087735 75.25 377.3125 C80.96127803 383.31766884 87.54544763 388.36199694 95 392 C95.11594308 400.64924833 95.20473943 409.29822843 95.25906086 417.94808483 C95.28513507 421.96477428 95.32049178 425.98093138 95.37719727 429.99731445 C95.43159709 433.87473581 95.46143691 437.75164575 95.47438622 441.62941933 C95.48361202 443.10743574 95.50162858 444.58542471 95.52865028 446.06322289 C95.56505088 448.13675374 95.56994139 450.20818254 95.56762695 452.28198242 C95.57873001 453.46112717 95.58983307 454.64027191 95.60127258 455.85514832 C94.803445 460.02804673 93.18784768 461.23519964 90 464 C88.93288502 465.05246961 87.87472022 466.11406299 86.82391357 467.18281555 C86.24632294 467.76185135 85.6687323 468.34088715 85.07363892 468.93746948 C84.45733612 469.55534332 83.84103333 470.17321716 83.20605469 470.80981445 C76.4871467 477.54501634 69.76572786 484.27770671 63.04285812 491.00895405 C58.9784253 495.07863072 54.91494259 499.14924721 50.85351562 503.22192383 C46.9207011 507.16555929 42.98548799 511.1067862 39.0485611 515.04631615 C37.54689996 516.54983062 36.04612188 518.05422757 34.5462265 519.55950356 C32.45856869 521.6543627 30.36786125 523.74613016 28.27636719 525.8371582 C27.65196747 526.4651532 27.02756775 527.09314819 26.38424683 527.74017334 C22.1140547 532 22.1140547 532 21 532 C20.67950547 493.42567978 20.43284059 454.85156021 20.28508539 416.2761778 C20.26757564 411.72130711 20.24945512 407.16643904 20.23095703 402.61157227 C20.22728469 401.70478617 20.22361234 400.79800007 20.21982871 399.86373561 C20.15892135 385.18392623 20.04854518 370.50488495 19.91986085 355.82553113 C19.78890503 340.7613403 19.71117045 325.69755151 19.68276107 310.63281482 C19.66355691 301.33767484 19.6029292 292.04470575 19.48916946 282.75023418 C19.41512058 276.37521404 19.39280684 270.00131476 19.41098072 263.62589587 C19.41994436 259.94743376 19.4062938 256.27276094 19.33112335 252.59497452 C18.91223856 231.06176224 18.91223856 231.06176224 22.37877417 225.977988 C26.09308355 222.42281294 30.26920846 220.82930198 35 219 C45.69635131 210.6318222 52.98561057 197.3853354 55 184 C55.75937987 172.79914695 55.74126838 162.37152457 51 152 C50.566875 150.93652344 50.566875 150.93652344 50.125 149.8515625 C44.60506578 137.38242538 34.28196422 128.58188307 22 123.125 C7.85558156 117.68342969 -6.10358686 117.68329372 -20.25390625 123.2890625 C-36.54116735 131.0686738 -46.62296142 143.11409319 -52.7421875 160.0546875 C-56.96362056 174.91644499 -54.0343624 190.86736239 -46.875 204.1875 C-39.63667029 215.80249419 -31.19834499 221.02951715 -19 228 C-19 310.17 -19 392.34 -19 477 C-30.96184069 466.74699369 -42.54834661 456.11690815 -53.95551968 445.25091076 C-58.07817067 441.32976579 -62.2292022 437.45589896 -66.47729492 433.6706543 C-97.18819625 406.22146646 -97.18819625 406.22146646 -98.85901356 387.02912235 C-98.98591475 384.25785326 -99.00796175 381.51198854 -98.97265625 378.73828125 C-98.96884854 377.41936921 -98.96884854 377.41936921 -98.96496391 376.07381248 C-98.67336135 363.16222577 -98.67336135 363.16222577 -94.64780807 358.4005394 C-92.00820623 356.06247542 -89.31324897 354.44935858 -86.20921326 352.75553894 C-75.15127513 346.70650467 -69.03830673 333.78713607 -65.05859375 322.27734375 C-61.4084785 306.98770017 -64.10132702 292.14053915 -71.88574219 278.76220703 C-78.36749148 268.51127224 -87.15573957 262.09042343 -98 257 C-98.80695313 256.61972656 -99.61390625 256.23945313 -100.4453125 255.84765625 C-112.53628119 251.27668028 -128.44009421 252.90794848 -140 258 C-151.56493677 263.65694447 -159.93529708 271.66818536 -166 283 C-166.50917969 283.91910156 -167.01835937 284.83820313 -167.54296875 285.78515625 C-173.08824423 297.57469151 -173.17154511 313.44569485 -169.375 325.8125 C-168.29499385 328.50557484 -168.29499385 328.50557484 -167 331 C-166.57589844 331.85207031 -166.15179688 332.70414062 -165.71484375 333.58203125 C-159.45728563 344.92930238 -150.87744757 352.23691166 -140 359 C-139.67 359.33 -139.34 359.66 -139 360 C-139.01828052 361.54904214 -139.1068981 363.0973075 -139.22314453 364.64208984 C-142.56762675 395.55809681 -142.56762675 395.55809681 -132.20703125 423.34765625 C-126.48599987 429.72527841 -119.73038896 434.87618175 -112.70983028 439.73278046 C-110.81753357 441.13523274 -109.08362217 442.6504874 -107.32801819 444.22058105 C-103.85765054 447.28099361 -100.29978659 450.1948117 -96.67380905 453.06793594 C-84.21984933 462.94782496 -72.22967181 473.33722917 -60.5 484.0625 C-60.00634508 484.51260878 -59.51269016 484.96271755 -59.004076 485.42646599 C-34.54315995 507.78438064 -15.12181732 529.02944255 -13.26348877 563.81106758 C-12.45811578 587.24815801 -15.05555406 610.92237182 -19 634 C-21.27701924 631.03777287 -22.98128633 628.19872939 -24.56640625 624.80859375 C-25.0466626 623.79095947 -25.52691895 622.7733252 -26.02172852 621.72485352 C-26.53018311 620.64002686 -27.0386377 619.5552002 -27.5625 618.4375 C-44.87538835 582.00103678 -66.01327791 547.01322155 -92.64794922 516.5625 C-94.04842914 514.94403278 -95.41901785 513.30377779 -96.78515625 511.65625 C-103.01591969 504.18440812 -109.60768919 497.21551257 -116.5690918 490.41674805 C-119.9684429 487.0893006 -123.05966197 483.74942434 -126 480 C-127.1131732 478.94364771 -128.25965404 477.92122436 -129.4375 476.9375 C-132.53485255 474.29816632 -135.53086022 471.57765315 -138.49145508 468.78564453 C-145.07272019 462.59880287 -151.92563519 456.9297102 -159.10498047 451.45361328 C-161.10410611 449.92014329 -163.08586141 448.36597326 -165.06640625 446.80859375 C-180.51088634 434.72838193 -196.91523658 424.58618654 -214 415 C-214.68465332 414.61102539 -215.36930664 414.22205078 -216.07470703 413.82128906 C-236.56623874 402.23671635 -258.58423447 394.0083652 -281 387 C-279.5929668 379.93567271 -277.52650088 373.32604578 -275.0625 366.5625 C-274.66554932 365.47195313 -274.26859863 364.38140625 -273.85961914 363.2578125 C-254.04588057 309.54962302 -226.28608098 256.82303376 -192.28662109 210.75341797 C-190.81885511 208.75313423 -189.37145838 206.73896032 -187.92578125 204.72265625 C-177.70038048 190.46698397 -167.28474257 176.44040091 -156.15625 162.875 C-153.19091262 159.25310374 -150.30793011 155.57223031 -147.4375 151.875 C-143.22057175 146.45916378 -138.82938548 141.2196792 -134.33300781 136.03417969 C-131.37481404 132.62029005 -128.50293203 129.15881619 -125.6875 125.625 C-121.2184822 120.1102157 -116.38117867 114.97177291 -111.4909668 109.83251953 C-110.88293213 109.1929834 -110.27489746 108.55344727 -109.6484375 107.89453125 C-108.84672119 107.05692261 -108.84672119 107.05692261 -108.02880859 106.20239258 C-106.22339267 104.24250605 -104.46945892 102.25117264 -102.72119141 100.24047852 C-90.94706707 86.7449074 -78.24355613 74.08165231 -65.56982422 61.43945312 C-62.97114686 58.84620716 -60.37795419 56.24756052 -57.78515625 53.6484375 C-56.10709188 51.97103293 -54.42871787 50.29393806 -52.75 48.6171875 C-51.98840576 47.85356903 -51.22681152 47.08995056 -50.44213867 46.30319214 C-46.35019005 42.22894754 -42.1781023 38.31781879 -37.78417969 34.57009888 C-35.94247458 32.94937696 -34.21721026 31.25139368 -32.5 29.5 C-29.60128661 26.55589288 -26.56668623 23.84759986 -23.4375 21.15234375 C-19.6155682 17.77752897 -15.90439797 14.28395325 -12.18725586 10.79443359 C-8.21781388 7.08211918 -4.1538182 3.50471026 0 0 Z " fill="#84BE69" transform="translate(512,92)"/>
<path d="M0 0 C3.94579075 0.50236522 7.6327781 1.03000269 11.36328125 2.42578125 C12.54929932 2.86893677 12.54929932 2.86893677 13.75927734 3.32104492 C14.60184082 3.6482251 15.4444043 3.97540527 16.3125 4.3125 C17.21693848 4.66223877 18.12137695 5.01197754 19.05322266 5.37231445 C45.19956802 15.67970997 70.2852991 28.38418462 93 45 C93.66580078 45.4832373 94.33160156 45.96647461 95.01757812 46.46435547 C104.35166399 53.26142795 113.29842744 60.41034702 122 68 C122.61673584 68.53423584 123.23347168 69.06847168 123.86889648 69.61889648 C140.93765814 84.45650188 156.91098629 100.28672553 171 118 C172.00163895 119.21281359 173.00572131 120.42361172 174.01171875 121.6328125 C181.32830223 130.45810554 188.1445519 139.52467508 194.61962891 148.984375 C195.89746274 150.85027457 197.18798734 152.70673595 198.48046875 154.5625 C227.46192156 196.63159016 247.69781593 245.22779775 259 295 C259.28327148 296.24265625 259.56654297 297.4853125 259.85839844 298.765625 C266.03542561 326.14740958 271.4231829 354.65148864 271.0625 382.8125 C271.05798828 383.51697266 271.05347656 384.22144531 271.04882812 384.94726562 C271.03737041 386.63155009 271.01945815 388.31578897 271 390 C262.88052399 387.59130971 255.47358915 383.9914477 247.9375 380.1875 C247.28170959 379.85841644 246.62591919 379.52933289 245.95025635 379.1902771 C233.92358635 373.14308262 222.25221174 366.58617356 210.72265625 359.63476562 C208.10756848 358.06458739 205.47892421 356.52054798 202.84375 354.984375 C178.7219151 340.8521056 155.7762898 324.52076014 134 307 C133.03578125 306.23042969 132.0715625 305.46085937 131.078125 304.66796875 C125.47378473 300.14808415 120.08927166 295.44016698 114.80078125 290.5546875 C113.32479428 289.20838976 111.84390908 287.86655239 110.32543945 286.56835938 C104.34511189 281.45545499 98.76921174 275.95534215 93.2097168 270.39501953 C91.57424118 268.76172552 89.93092292 267.1366153 88.28710938 265.51171875 C81.73800565 258.99748121 75.73092901 252.25844622 70 245 C68.99995973 243.79106243 67.9965518 242.58489448 66.98828125 241.3828125 C21.99558317 186.94049543 -2.79699852 118.25720327 -2.33618164 47.8059082 C-2.31233233 43.91011178 -2.31568356 40.01499298 -2.32226562 36.11914062 C-2.30746157 23.95049536 -2.25905157 11.99094744 0 0 Z " fill="#439F4F" transform="translate(221,522)"/>
<path d="M0 0 C-0.50792987 10.04848675 -1.54873172 19.82301191 -3.25 29.75 C-3.41573013 30.72528656 -3.41573013 30.72528656 -3.58480835 31.72027588 C-5.45738815 42.67479243 -7.73225727 53.37606649 -11 64 C-11.27150879 64.89783203 -11.54301758 65.79566406 -11.82275391 66.72070312 C-23.19088045 103.85700164 -41.19178486 138.77416138 -65.49755859 169.11230469 C-66.96549691 170.95664967 -68.40289882 172.82079462 -69.83203125 174.6953125 C-74.95337911 181.38295515 -80.31935647 187.71317876 -86.11743164 193.82714844 C-88.31261304 196.14253775 -90.22392044 198.33588066 -92 201 C-92.66 201 -93.32 201 -94 201 C-94.21398437 201.54011719 -94.42796875 202.08023438 -94.6484375 202.63671875 C-96.48636117 205.85042922 -98.996689 208.24918026 -101.625 210.8125 C-102.16697021 211.3472998 -102.70894043 211.88209961 -103.26733398 212.43310547 C-106.72750813 215.82386016 -110.26335436 219.09349586 -113.953125 222.234375 C-116.45714849 224.3943342 -118.87997698 226.63487993 -121.3125 228.875 C-142.07813405 247.78400928 -165.31610883 263.99296778 -189 279 C-189.83370117 279.53093262 -190.66740234 280.06186523 -191.52636719 280.60888672 C-210.32857378 292.55181014 -229.74131661 303.35620033 -249.5 313.625 C-250.6152002 314.20499756 -251.73040039 314.78499512 -252.87939453 315.38256836 C-267.29480256 322.81144148 -267.29480256 322.81144148 -271 324 C-271.66 323.67 -272.32 323.34 -273 323 C-258.09233766 261.7968124 -235.31355054 199.93107879 -196 150 C-195.18040229 148.92852593 -194.3627764 147.85554139 -193.546875 146.78125 C-186.17052599 137.08142912 -178.58477431 127.59727923 -170.36083984 118.59619141 C-168.90265286 116.99263811 -167.45256024 115.38162951 -166.01586914 113.75878906 C-160.38998584 107.41025974 -154.51424894 101.35946029 -148.5065918 95.3762207 C-146.93225845 93.8072764 -145.36338411 92.23301442 -143.79492188 90.65820312 C-138.36946682 85.22885074 -132.86523467 79.95715483 -127 75 C-125.9902472 74.12313023 -124.9810941 73.24556921 -123.97265625 72.3671875 C-88.83190231 42.27349486 -49.91748891 19.24000425 -7 2 C-5.66267822 1.43974121 -5.66267822 1.43974121 -4.29833984 0.86816406 C-2 0 -2 0 0 0 Z " fill="#43A04F" transform="translate(805,589)"/>
<path d="M0 0 C0.86625 0.763125 1.7325 1.52625 2.625 2.3125 C6.15851455 5.3493358 9.81922904 8.20818073 13.5 11.0625 C19.36571384 15.62419564 25.00703146 20.39964316 30.59472656 25.29638672 C34.25656866 28.50217172 37.9609062 31.63143146 41.75 34.6875 C46.47441128 38.51336054 50.9705208 42.54664377 55.4453125 46.66015625 C57.62697815 48.65834848 59.83011309 50.62148889 62.0625 52.5625 C65.88735286 55.8887977 69.6563688 59.27430085 73.41796875 62.671875 C75.14507623 64.22914589 76.8768935 65.78120856 78.61328125 67.328125 C82.93342863 71.18282403 87.13871289 75.08718387 91.19024658 79.22268677 C92.9610959 80.96179327 94.79144704 82.57572339 96.67871094 84.18701172 C101.14424277 88.07257944 105.33709909 92.19275702 109.515625 96.3828125 C110.68300201 97.54875443 110.68300201 97.54875443 111.8739624 98.73825073 C113.50541935 100.36903175 115.13563252 102.00105793 116.76464844 103.63427734 C119.25342958 106.12843699 121.74753274 108.6171854 124.2421875 111.10546875 C125.83365424 112.69759595 127.42481094 114.29003315 129.015625 115.8828125 C129.75733948 116.62250275 130.49905396 117.36219299 131.26324463 118.1242981 C134.73417827 121.61098263 137.9959491 125.0931727 141 129 C142.65253115 130.6806833 144.32126526 132.34548943 146 134 C148.45925759 136.54214602 150.88752654 139.11268267 153.3125 141.6875 C153.95767578 142.36361328 154.60285156 143.03972656 155.26757812 143.73632812 C155.87666016 144.38408203 156.48574219 145.03183594 157.11328125 145.69921875 C157.66798096 146.28533936 158.22268066 146.87145996 158.79418945 147.4753418 C160 149 160 149 160 151 C160.66 151 161.32 151 162 151 C163.3327188 152.46690559 164.58913869 154.00322501 165.8125 155.5625 C169.60451808 160.30710233 173.50191493 164.92793241 177.5 169.5 C182.14768946 174.82418348 186.68115024 180.21195548 191.09765625 185.73046875 C192.96088025 187.95332942 194.92003169 189.98057131 197 192 C198.9829823 193.9829823 199.79378573 195.51218307 201 198 C201.66 198.99 202.32 199.98 203 201 C204.32 201 205.64 201 207 201 C206.83564453 202.01707031 206.83564453 202.01707031 206.66796875 203.0546875 C207.15962853 207.41599897 209.55821037 209.82540965 212.3125 213.125 C212.81201172 213.74503906 213.31152344 214.36507812 213.82617188 215.00390625 C216.10430845 217.81008773 218.41632388 220.46960002 221 223 C223 225 223 225 223 227 C224.39447067 229.08716869 225.82389695 231.10645205 227.3125 233.125 C228.2239827 234.37924545 229.13408327 235.63449621 230.04296875 236.890625 C230.5229834 237.55384766 231.00299805 238.21707031 231.49755859 238.90039062 C234.0904266 242.52383307 236.60770391 246.19883053 239.125 249.875 C239.61009033 250.58285645 240.09518066 251.29071289 240.5949707 252.02001953 C241.73106078 253.67927385 242.86569936 255.33952187 244 257 C244.99 256.67 245.98 256.34 247 256 C246.90589844 256.67804688 246.81179688 257.35609375 246.71484375 258.0546875 C247.11356091 262.17294415 249.22479368 264.84692867 251.5625 268.125 C252.48152503 269.4536971 253.39948597 270.78313081 254.31640625 272.11328125 C254.99920654 273.09482178 254.99920654 273.09482178 255.69580078 274.09619141 C258.11909332 277.63359972 260.36123492 281.28525519 262.625 284.92578125 C263.9671813 287.09963252 263.9671813 287.09963252 266 289 C266.82437791 290.37676718 267.6120358 291.77577324 268.375 293.1875 C268.81199219 293.98671875 269.24898437 294.7859375 269.69921875 295.609375 C270.12847656 296.39828125 270.55773437 297.1871875 271 298 C273.57258702 302.80196395 273.57258702 302.80196395 277 307 C278.14412434 309.19602707 279.24141611 311.39398655 280.3125 313.625 C282.34708483 317.79779514 284.41490618 321.84358328 286.9375 325.75 C289 329 289 329 289 331 C289.99 331.33 290.98 331.66 292 332 C292 332.99 292 333.98 292 335 C292.99132209 337.22771079 294.02553972 339.37469243 295.140625 341.5390625 C295.46407898 342.17935394 295.78753296 342.81964539 296.12078857 343.4793396 C297.15822453 345.53080765 298.20365872 347.57806177 299.25 349.625 C311 372.72211132 311 372.72211132 311 376 C311.66 376.33 312.32 376.66 313 377 C313.72048651 379.06223085 314.4289963 381.12923824 315.08496094 383.21289062 C316.08376741 386.25514641 317.2163215 389.22118608 318.3828125 392.203125 C323.36242797 404.98055996 328.06384042 417.77380469 332.125 430.875 C332.50285645 432.08575195 332.88071289 433.29650391 333.27001953 434.54394531 C336.0907878 443.80487766 336.0907878 443.80487766 336.6171875 448.2578125 C336.80667969 449.61519531 336.80667969 449.61519531 337 451 C337.66 451.33 338.32 451.66 339 452 C339.27040343 453.89282401 339.52828319 455.78848852 339.71484375 457.69140625 C340.00094075 460.00761624 340.49403747 462.17557566 341.0625 464.4375 C342.14447901 469.03791445 342.14967202 473.28533128 342 478 C339.14782562 475.14782562 339.15007911 471.90394673 338.5 468.0625 C333.93262092 443.50102128 326.02529464 419.24484579 317 396 C316.70561035 395.23703613 316.4112207 394.47407227 316.10791016 393.68798828 C305.6667242 366.8765795 293.0421396 340.45572688 278.11425781 315.86132812 C276.39076997 312.98230287 274.76430179 310.05280649 273.125 307.125 C265.08781285 293.01131047 256.10946 279.43959128 247 266 C246.50918945 265.27345215 246.01837891 264.5469043 245.51269531 263.79833984 C225.45214368 234.13247113 203.97301711 205.47439266 181 178 C180.5143457 177.41911621 180.02869141 176.83823242 179.52832031 176.23974609 C176.83620396 173.02672689 174.12766171 169.82824381 171.40380859 166.64208984 C170.43663961 165.51075444 169.4709026 164.37819381 168.50634766 163.24462891 C161.63428785 155.1770516 154.58929949 147.31221545 147.28808594 139.62963867 C144.24189408 136.42010877 141.26068385 133.17708274 138.36328125 129.83203125 C135.00990483 125.96719448 131.4158502 122.42186647 127.72265625 118.8828125 C126 117 126 117 126 115 C125.40703125 114.74605469 124.8140625 114.49210937 124.203125 114.23046875 C121.75602301 112.86373626 120.50652046 111.48257018 118.75 109.3125 C116.46995569 106.49630665 114.03647418 104.11774708 111.296875 101.76171875 C106.03218301 97.22526462 101.2218471 92.27142538 96.35546875 87.31640625 C92.28409371 83.20037261 88.12108713 79.28565756 83.73242188 75.50976562 C81.72485159 73.76021452 79.84932285 71.9153701 78 70 C73.68967377 65.63974721 69.12359889 61.6622369 64.45947266 57.68701172 C62.70142315 56.1880218 60.94422553 54.68804131 59.1875 53.1875 C58.58172119 52.67050537 57.97594238 52.15351074 57.35180664 51.62084961 C53.61004476 48.41569505 49.93923121 45.14826137 46.3125 41.8125 C41.98257316 37.84234842 37.51768179 34.10061666 32.9453125 30.4140625 C30.20629333 28.16908393 27.52420149 25.87338656 24.8503418 23.55200195 C18.11483274 17.70499511 11.20731303 12.25486755 4 7 C2.6650611 6.00214434 1.33108025 5.00299709 0 4 C-13.70681117 10.34744947 -25.52051841 23.22057808 -37 33 C-37.58749023 33.49967285 -38.17498047 33.9993457 -38.78027344 34.51416016 C-44.64495334 39.50500592 -50.49079548 44.50458054 -56.1875 49.6875 C-59.57679929 52.77070494 -63.05389485 55.6918997 -66.625 58.5625 C-70.71059754 61.8666049 -74.44535454 65.32952356 -78.1015625 69.09765625 C-80.63700126 71.63831196 -83.34591635 73.94648949 -86.06640625 76.28515625 C-88.53192948 78.4717516 -90.82003696 80.80636891 -93.12599182 83.15867615 C-94.9278623 84.92912044 -96.78640817 86.57486719 -98.70678711 88.21508789 C-103.04781569 91.99137617 -107.13003722 95.98551923 -111.19140625 100.05859375 C-111.94034653 100.8065773 -112.6892868 101.55456085 -113.46092224 102.32521057 C-115.03271225 103.89632464 -116.60325849 105.46868392 -118.17260742 107.04223633 C-120.55601304 109.43099846 -122.94471068 111.81437446 -125.33398438 114.19726562 C-126.87011237 115.7340545 -128.40593009 117.2711536 -129.94140625 118.80859375 C-130.99794151 119.86209267 -130.99794151 119.86209267 -132.07582092 120.93687439 C-136.05713945 124.93680235 -139.86189541 129.03590721 -143.53843689 133.31825256 C-145.26984803 135.31050061 -147.10156737 137.16703056 -149 139 C-152.21434731 142.1711603 -155.21750963 145.45582753 -158.16015625 148.87890625 C-160.19508819 151.22491058 -162.28290967 153.5173645 -164.375 155.8125 C-168.32687937 160.18635971 -172.05275365 164.70972122 -175.7578125 169.29296875 C-177.89483782 171.87303591 -180.10735745 174.34714485 -182.375 176.8125 C-186.89332462 181.77717558 -191.00561936 187.00087397 -195.1171875 192.30078125 C-198.01101494 196.0300115 -200.972673 199.70216903 -203.9375 203.375 C-208.84346817 209.46020237 -213.55549222 215.67513226 -218.16772461 221.98583984 C-221.78819738 226.89409869 -221.78819738 226.89409869 -224 228 C-222.4236505 223.14036633 -219.63603627 219.5583872 -216.5625 215.5625 C-216.03479004 214.86817871 -215.50708008 214.17385742 -214.96337891 213.45849609 C-200.53688904 194.53688904 -200.53688904 194.53688904 -197 191 C-197.495 190.01 -197.495 190.01 -198 189 C-197.195625 188.566875 -196.39125 188.13375 -195.5625 187.6875 C-192.72153646 186.19525998 -192.72153646 186.19525998 -192 183 C-190.37026229 181.29720508 -188.69790079 179.63483591 -187 178 C-182.052566 172.7413036 -177.26094 167.38867499 -172.75 161.75 C-167.90047666 155.7396865 -162.63088121 150.16516137 -157.3359375 144.55078125 C-154.72241125 141.77910241 -152.15670131 138.97195148 -149.625 136.125 C-138.61253979 123.85340187 -127.14440469 112.0441761 -115.5 100.375 C-114.93983185 99.81224365 -114.3796637 99.2494873 -113.80252075 98.66967773 C-108.22460897 93.07142763 -102.63673372 87.54082416 -96.62304688 82.40478516 C-94.47023198 80.54147335 -92.48183014 78.54280953 -90.5 76.5 C-87.19013302 73.15066271 -83.79253051 70.00074044 -80.21875 66.9375 C-78.01543714 65.01348032 -75.86578797 63.0378989 -73.72167969 61.04833984 C-68.39522911 56.10670922 -62.95659066 51.41172587 -57.27734375 46.875 C-55.02840874 45.09705526 -55.02840874 45.09705526 -53.31640625 43.25 C-52 42 -52 42 -50 42 C-50 41.34 -50 40.68 -50 40 C-48.51261765 38.64617851 -46.95569449 37.36860114 -45.375 36.125 C-40.83920877 32.49869904 -36.39379075 28.79688703 -32 25 C-7.03422339 3.5171117 -7.03422339 3.5171117 0 0 Z " fill="#093515" transform="translate(513,24)"/>
<path d="M0 0 C0.33 0 0.66 0 1 0 C1.10022461 0.89493164 1.20044922 1.78986328 1.30371094 2.71191406 C7.74454719 59.59866507 23.72638279 112.96976897 54 162 C54.3801123 162.61568848 54.76022461 163.23137695 55.15185547 163.86572266 C69.01859135 186.16680287 85.31097199 206.62916288 103 226 C103.85207031 226.94488281 104.70414062 227.88976562 105.58203125 228.86328125 C113.92015454 238.0820332 122.46673942 247.16387586 131.9453125 255.2265625 C134.49603107 257.42813328 136.96088053 259.7154729 139.4375 262 C143.32335371 265.54032636 147.26857785 268.87402888 151.45703125 272.046875 C153.41769067 273.55275781 155.34475449 275.08065064 157.26171875 276.640625 C204.78073941 315.2975359 258.92044963 345.81375274 313.68359375 372.8515625 C317.31673051 374.64882956 320.92594627 376.49112775 324.53515625 378.3359375 C325.70232178 378.92882568 326.8694873 379.52171387 328.07202148 380.13256836 C330.39892874 381.3146494 332.72279288 382.50274454 335.04321289 383.69750977 C336.11434326 384.23947998 337.18547363 384.7814502 338.2890625 385.33984375 C339.72306396 386.07255493 339.72306396 386.07255493 341.18603516 386.82006836 C345.02803201 388.43106704 348.25780064 389.53830263 352.33569336 388.27832031 C353.07956299 387.88225586 353.82343262 387.48619141 354.58984375 387.078125 C355.87205811 386.4138147 355.87205811 386.4138147 357.18017578 385.73608398 C358.54505127 385.00047241 358.54505127 385.00047241 359.9375 384.25 C361.91169127 383.22320218 363.88698764 382.19852681 365.86328125 381.17578125 C366.87729004 380.64678223 367.89129883 380.1177832 368.93603516 379.57275391 C373.78108024 377.08575945 378.70113387 374.76337777 383.625 372.4375 C398.17784566 365.51101107 412.5885735 358.38766452 426.75 350.6875 C427.65500244 350.19580322 428.56000488 349.70410645 429.49243164 349.19750977 C433.37843517 347.06544644 437.21388085 344.90068952 440.953125 342.51953125 C444.01405195 340.57187906 447.13868758 338.80811746 450.33203125 337.0859375 C473.55727408 324.54838168 495.77517451 309.66666975 517 294 C517.64372559 293.5261084 518.28745117 293.0522168 518.95068359 292.56396484 C528.79879133 285.29628998 538.43317644 277.83974305 547.6796875 269.8125 C548.31310059 269.26400391 548.94651367 268.71550781 549.59912109 268.15039062 C550.84305614 267.07037509 552.08313691 265.98590023 553.31884766 264.89648438 C555.86475679 262.68088281 557.76431921 261.07856026 561 260 C561.33 259.01 561.66 258.02 562 257 C564.5625 255.8125 564.5625 255.8125 567 255 C563.0538086 259.84951474 558.89260451 264.08715037 554.125 268.125 C553.47861572 268.67776611 552.83223145 269.23053223 552.16625977 269.80004883 C550.11857555 271.542785 548.06155316 273.27369824 546 275 C545.33049316 275.56090332 544.66098633 276.12180664 543.97119141 276.69970703 C535.51200548 283.7521047 526.87410667 290.42897623 517.83349609 296.71679688 C515.89552346 298.07311967 513.97224123 299.44851954 512.05078125 300.828125 C485.21361669 320.05062532 456.93400319 337.14245481 428 353 C426.53888367 353.80827056 425.07792504 354.61682632 423.6171875 355.42578125 C415.28965211 360 415.28965211 360 413 360 C412.67 360.66 412.34 361.32 412 362 C409.8439226 363.10524021 407.64975777 364.13700139 405.4375 365.125 C404.23996094 365.66382813 403.04242187 366.20265625 401.80859375 366.7578125 C400.41833984 367.37269531 400.41833984 367.37269531 399 368 C399 368.66 399 369.32 399 370 C397.82630859 370.09474609 397.82630859 370.09474609 396.62890625 370.19140625 C391.6194222 371.30762067 387.47146922 373.57943742 382.9375 375.9375 C380.97981534 376.93226719 379.02146365 377.9257226 377.0625 378.91796875 C376.06347656 379.42634277 375.06445312 379.9347168 374.03515625 380.45849609 C369.18492505 382.9218455 364.32256705 385.35647691 359.4375 387.75 C358.12736938 388.41310181 358.12736938 388.41310181 356.79077148 389.08959961 C355.97165283 389.48800049 355.15253418 389.88640137 354.30859375 390.296875 C353.59501709 390.65104492 352.88144043 391.00521484 352.14624023 391.37011719 C347.86087526 392.62779454 344.15997299 390.77802846 340.26171875 388.99609375 C338.92137573 388.38652832 338.92137573 388.38652832 337.55395508 387.76464844 C336.6080249 387.32668945 335.66209473 386.88873047 334.6875 386.4375 C333.69838623 385.9827832 332.70927246 385.52806641 331.69018555 385.05957031 C323.36687145 381.21212158 315.15431736 377.19153442 307 373 C306.0615625 372.52111328 305.123125 372.04222656 304.15625 371.54882812 C289.38685071 364.00720361 274.78382408 356.21423691 260.29223633 348.15429688 C259.69969055 347.82480042 259.10714478 347.49530396 258.49664307 347.15582275 C256.89292254 346.26311302 255.29029352 345.36844323 253.68774414 344.47363281 C252.80078857 343.98733398 251.91383301 343.50103516 251 343 C250.28255615 342.58331055 249.5651123 342.16662109 248.82592773 341.73730469 C246.82264546 340.6988768 246.82264546 340.6988768 244 342 C243.91669434 341.39365723 243.83338867 340.78731445 243.74755859 340.16259766 C242.76257158 337.31314795 241.65614527 336.83638884 239.0390625 335.3984375 C238.18852295 334.91753662 237.3379834 334.43663574 236.46166992 333.94116211 C235.52556885 333.42432861 234.58946777 332.90749512 233.625 332.375 C224.58234408 327.21066039 215.82852034 321.73895672 207.1875 315.9375 C206.32573654 315.35921951 206.32573654 315.35921951 205.44656372 314.76925659 C187.11035372 302.44223792 168.98618319 289.78275246 152.07421875 275.53515625 C151.10097656 274.71917969 150.12773437 273.90320313 149.125 273.0625 C148.24070312 272.31097656 147.35640625 271.55945313 146.4453125 270.78515625 C144.20094063 268.88822848 144.20094063 268.88822848 141.8671875 268.55859375 C138.99861926 267.70042375 138.48167466 265.54153285 137 263 C134.99382188 260.98548596 132.99178261 259.07579577 130.875 257.1875 C130.30112549 256.66559082 129.72725098 256.14368164 129.13598633 255.60595703 C124.98749221 251.84365211 120.77687612 248.15303282 116.51171875 244.5234375 C115 243 115 243 115 241 C114.01 240.67 113.02 240.34 112 240 C112 239.34 112 238.68 112 238 C111.34 238 110.68 238 110 238 C110 237.34 110 236.68 110 236 C109.34 236 108.68 236 108 236 C106.4140625 234.390625 106.4140625 234.390625 104.625 232.25 C102.66242273 229.93096298 100.7411705 227.74780716 98.5625 225.625 C97 224 97 224 97 222 C96.34 222 95.68 222 95 222 C93.2578125 220.12109375 93.2578125 220.12109375 91.125 217.4375 C90.31804687 216.426875 89.51109375 215.41625 88.6796875 214.375 C88.02758301 213.55128906 88.02758301 213.55128906 87.36230469 212.7109375 C85.98678537 210.98340356 84.5936079 209.27163464 83.1953125 207.5625 C73.16462925 195.25234524 63.54157166 182.53908465 55.26953125 168.96875 C54.0206043 166.87989844 54.0206043 166.87989844 52 165 C51.080095 163.45112491 50.2037641 161.87619567 49.3515625 160.2890625 C48.82079102 159.30067383 48.29001953 158.31228516 47.74316406 157.29394531 C44.92388993 151.96654383 42.12780518 146.62786266 39.35839844 141.27441406 C38.37189375 139.36900033 37.3813237 137.46573576 36.390625 135.5625 C27 117.46489926 27 117.46489926 27 114 C26.01 114 25.02 114 24 114 C22.34043892 112.08512183 21.13211641 110.26423282 20 108 C21.98 107.505 21.98 107.505 24 107 C22.515 106.505 22.515 106.505 21 106 C21.66 106 22.32 106 23 106 C22.65213292 104.02463255 22.65213292 104.02463255 22 102 C21.34 101.67 20.68 101.34 20 101 C19.32421875 99.2421875 19.32421875 99.2421875 18.6875 96.875 C17.4460379 92.46718255 16.04751777 88.14456105 14.5625 83.8125 C12.00955999 76.29776637 9.95283216 68.6913222 8 61 C7.01 61.495 7.01 61.495 6 62 C5.67 60.35 5.34 58.7 5 57 C5.66 57 6.32 57 7 57 C6.84853516 56.30962646 6.69707031 55.61925293 6.54101562 54.90795898 C5.85319564 51.75271709 5.17651598 48.59518404 4.5 45.4375 C4.26152344 44.35146484 4.02304688 43.26542969 3.77734375 42.14648438 C2.60973999 36.65874671 1.67785093 31.61344746 2 26 C1.34 25.67 0.68 25.34 0 25 C0 16.75 0 8.5 0 0 Z M24 109 C25 111 25 111 25 111 Z M25 111 C26 113 26 113 26 113 Z " fill="#0A3415" transform="translate(164,598)"/>
<path d="M0 0 C5.068339 3.58492271 9.45308466 7.85452369 11.5625 13.8125 C12.72416466 20.81475639 11.57913565 26.48734333 8.1171875 32.6484375 C4.49283223 37.69339433 -0.41611279 40.43259876 -6.4375 41.8125 C-13.03645572 42.70082096 -18.07216549 40.50116747 -23.4375 36.8125 C-29.47059637 30.56046061 -30.7451427 25.3159378 -30.65234375 16.7578125 C-30.28367122 11.70364723 -28.41278429 8.95033168 -25.1875 5.1875 C-17.46382867 -1.48294342 -9.94439602 -3.43533681 0 0 Z " fill="#88C26B" transform="translate(638.4375,411.1875)"/>
<path d="M0 0 C5.21754003 3.02794856 8.84915421 7.13035812 11.87890625 12.32421875 C13.54603062 18.99271621 13.34636617 25.22076059 9.90234375 31.25390625 C6.39720283 36.02991698 2.1919493 39.22149499 -3.43359375 41.07421875 C-9.56441897 41.86233679 -15.2143108 41.59445674 -20.64453125 38.48828125 C-24.4689472 35.4654896 -27.26498393 31.4114384 -29.43359375 27.07421875 C-30.09699379 19.85263544 -30.71801118 12.73847972 -26.09375 6.76171875 C-18.77829116 -0.67423 -10.28101601 -3.91107671 0 0 Z " fill="#87C16B" transform="translate(521.43359375,247.92578125)"/>
<path d="M0 0 C4.88690056 3.9670134 8.61990954 7.75122677 9.37109375 14.171875 C9.51247806 21.78999432 9.30873939 27.25611803 4 33 C-1.94569373 38.51064297 -6.64767047 39.59171373 -14.66796875 39.4296875 C-19.95157707 38.74833121 -23.3337389 36.82632655 -27 33 C-30.97533443 27.55613026 -32.8160239 22.13153282 -32.4140625 15.3828125 C-31.26562632 8.7738873 -28.01652031 4.28048824 -22.7890625 0.1875 C-15.67058449 -4.53742863 -7.26883478 -4.07624853 0 0 Z " fill="#88C26C" transform="translate(406,382)"/>
<path d="M0 0 C2.76939181 2.76939181 2.44755655 5.43950483 2.609375 9.16015625 C2.66505646 10.23330833 2.66505646 10.23330833 2.72186279 11.32814026 C5.95529247 77.75432992 -8.04107508 139.62424297 -38 199 C-38.54237305 200.08643799 -38.54237305 200.08643799 -39.09570312 201.19482422 C-60.51151968 243.86679667 -92.30243305 279.70198464 -126 313 C-126.99 312.67 -127.98 312.34 -129 312 C-124.7493298 307.66077417 -120.51269446 303.36590001 -115.875 299.4375 C-112.50042655 296.54310301 -109.64280277 293.4121449 -106.7734375 290.0234375 C-104.97538083 287.97191028 -103.0842574 286.08480459 -101.125 284.1875 C-97.21179813 280.32697585 -93.77202271 276.18084233 -90.3359375 271.89453125 C-88.02383041 269.02952899 -85.64200478 266.23591335 -83.25 263.4375 C-63.53321804 239.77736165 -47.09716042 212.83575836 -34 185 C-33.52167725 183.98752197 -33.52167725 183.98752197 -33.03369141 182.95458984 C-15.75826999 146.06088063 -3.82021804 105.77184045 -1 65 C-0.87081177 63.41904541 -0.87081177 63.41904541 -0.73901367 61.80615234 C0.2080984 49.0421749 0.11179516 36.2925587 0.0625 23.5 C0.05747231 21.21224057 0.05291166 18.92448006 0.04882812 16.63671875 C0.03792916 11.09112193 0.0212927 5.54556616 0 0 Z " fill="#093515" transform="translate(860,539)"/>
<path d="M0 0 C0.99 0.495 0.99 0.495 2 1 C1.2471875 2.0209375 0.494375 3.041875 -0.28125 4.09375 C-9.58815511 16.80053972 -18.37894206 29.82006098 -27 43 C-27.59425781 43.90733887 -28.18851562 44.81467773 -28.80078125 45.74951172 C-47.77910663 74.84354157 -65.88497499 105.2276216 -80 137 C-80.40734375 137.90911133 -80.8146875 138.81822266 -81.234375 139.75488281 C-87.83744603 154.33485384 -87.83744603 154.33485384 -93.18359375 169.40234375 C-94.06585638 172.20954301 -95.10340003 174.94412228 -96.14575195 177.69506836 C-106.845291 206.56455911 -114.11548552 236.62174766 -119 267 C-119.33 267 -119.66 267 -120 267 C-120.31027577 259.43533047 -119.42905072 252.46979827 -117.9375 245.0625 C-117.71199463 243.92989746 -117.48648926 242.79729492 -117.25415039 241.63037109 C-104.15375155 177.46894456 -77.17246555 118.54612519 -43 63 C-42.5344873 62.24122559 -42.06897461 61.48245117 -41.58935547 60.70068359 C-30.72825689 43.06413067 -18.97385337 26.00218834 -7.0625 9.0625 C-6.57265625 8.36495605 -6.0828125 7.66741211 -5.578125 6.94873047 C-3.82771177 4.47759594 -2.14555745 2.14555745 0 0 Z " fill="#083314" transform="translate(287,253)"/>
<path d="M0 0 C0.66 0.33 1.32 0.66 2 1 C0.35 1.66 -1.3 2.32 -3 3 C-2.96002899 3.97480316 -2.92005798 4.94960632 -2.87887573 5.95394897 C-2.51125485 15.21812323 -2.24291259 24.4807897 -2.06738091 33.75064659 C-1.97408199 38.51528031 -1.84800973 43.27395446 -1.64208984 48.03515625 C-0.16643144 83.05276582 -0.16643144 83.05276582 -9.27542114 92.98526001 C-12.33816794 95.75055405 -15.50356236 98.19303067 -18.92581177 100.4954071 C-21.87751461 102.63653926 -23.80098069 105.10618081 -26 108 C-27.25858097 109.18207899 -28.54764458 110.33320638 -29.875 111.4375 C-33.78783713 114.77010653 -37.41785667 118.31710889 -41 122 C-41 119 -41 119 -38.55078125 116.2578125 C-37.4788468 115.20585198 -36.39904283 114.16186502 -35.3125 113.125 C-34.78205078 112.60808594 -34.25160156 112.09117187 -33.70507812 111.55859375 C-32.69654981 110.57605206 -31.68495083 109.59664427 -30.66918945 108.62158203 C-29.37132252 107.36073193 -28.11728699 106.05470128 -26.88232422 104.73217773 C-24.49654903 102.47068272 -22.32516652 100.84173977 -19.62036133 99.03100586 C-12.7467162 93.98383684 -6.63369542 88.4591792 -5.0355835 79.74005127 C-3.56525668 68.39310654 -4.17632758 56.79115665 -4.59191895 45.39038086 C-4.84397768 37.93291905 -4.92803829 30.47123911 -5.02567482 23.01048088 C-5.07356127 20.41454828 -5.16165993 17.82248563 -5.25724792 15.22792053 C-5.2966888 13.64878799 -5.33556415 12.06964119 -5.3737793 10.49047852 C-5.41068375 9.77213333 -5.4475882 9.05378815 -5.48561096 8.31367493 C-5.51811218 6.31471252 -5.51811218 6.31471252 -5 3 C-2.60163879 0.96934509 -2.60163879 0.96934509 0 0 Z " fill="#8EC76E" transform="translate(654,482)"/>
<path d="M0 0 C0.33 0 0.66 0 1 0 C1.01030746 1.12086502 1.02061493 2.24173004 1.03123474 3.39656067 C1.12888821 13.94715709 1.23161465 24.49769348 1.33933926 35.04819202 C1.39456081 40.47261829 1.44797966 45.89704995 1.49731445 51.3215332 C1.54496923 56.55406638 1.59731256 61.78653338 1.65294075 67.01898766 C1.67335923 69.01770065 1.69207316 71.01643179 1.70907402 73.01517677 C1.73312914 75.80941976 1.76318233 78.60353746 1.79467773 81.39770508 C1.8004332 82.22848572 1.80618866 83.05926636 1.81211853 83.91522217 C1.85423496 87.19113922 1.9569704 89.8709112 3 93 C1.5625 96.1875 1.5625 96.1875 0 99 C-0.33 99 -0.66 99 -1 99 C-1.02312121 86.2396613 -1.04091395 73.47932755 -1.05181217 60.71897221 C-1.05704149 54.79449285 -1.06414001 48.87002778 -1.07543945 42.94555664 C-1.08626661 37.23327429 -1.09227647 31.52100572 -1.09487724 25.80871391 C-1.0967318 23.62411723 -1.100353 21.43952135 -1.10573006 19.2549305 C-1.11293821 16.20647651 -1.11399104 13.15808021 -1.11352539 10.10961914 C-1.11712067 9.19684204 -1.12071594 8.28406494 -1.12442017 7.34362793 C-1.11405216 1.11405216 -1.11405216 1.11405216 0 0 Z " fill="#8EC96F" transform="translate(533,682)"/>
<path d="M0 0 C0.33 0 0.66 0 1 0 C1.15906691 7.88500576 0.70975158 15.71161418 0.2020874 23.57623291 C-0.87678183 40.37725065 -1.54355729 57.17099434 -2 74 C-2.33 74 -2.66 74 -3 74 C-4.4535554 67.70295917 -4.24095789 61.36720121 -4.25 54.9375 C-4.25200409 54.25001678 -4.25400818 53.56253357 -4.256073 52.85421753 C-4.2645072 40.87437652 -3.57990131 28.99623273 -2.5625 17.0625 C-2.4951062 16.26198212 -2.4277124 15.46146423 -2.35827637 14.63668823 C-1.20769956 1.20769956 -1.20769956 1.20769956 0 0 Z " fill="#0A3818" transform="translate(166,522)"/>
<path d="M0 0 C0.66 0.33 1.32 0.66 2 1 C1.22136597 1.77077881 1.22136597 1.77077881 0.42700195 2.55712891 C-1.94718446 4.91039387 -4.31736406 7.26765585 -6.6875 9.625 C-7.50412109 10.43324219 -8.32074219 11.24148438 -9.16210938 12.07421875 C-14.18058847 17.05759044 -14.18058847 17.05759044 -18.83984375 22.37109375 C-20.73602076 24.67873774 -22.58812216 26.53493151 -24.875 28.4375 C-28.78783713 31.77010653 -32.41785667 35.31710889 -36 39 C-36 36 -36 36 -33.55078125 33.2578125 C-32.4788468 32.20585198 -31.39904283 31.16186502 -30.3125 30.125 C-29.51682617 29.34962891 -29.51682617 29.34962891 -28.70507812 28.55859375 C-27.63906055 27.52004411 -26.57042719 26.48417306 -25.49926758 25.45092773 C-23.3053501 23.32774722 -21.15418511 21.16347039 -19 19 C-17.45208426 17.45156161 -15.90387489 15.90341674 -14.35546875 14.35546875 C-13.09379883 13.09379883 -13.09379883 13.09379883 -11.80664062 11.80664062 C-7.87109375 7.87109375 -3.93554688 3.93554688 0 0 Z " fill="#A6DE7B" transform="translate(649,565)"/>
<path d="M0 0 C1.88790211 2.83185316 3.08890485 5.40773098 4.3828125 8.54296875 C5.04990234 10.15268555 5.04990234 10.15268555 5.73046875 11.79492188 C6.42076172 13.47424805 6.42076172 13.47424805 7.125 15.1875 C7.59292969 16.31865234 8.06085938 17.44980469 8.54296875 18.61523438 C9.69818968 21.40898294 10.85040988 24.2039308 12 27 C11.34 27.66 10.68 28.32 10 29 C9.32880451 27.5437455 8.66318193 26.08492133 8 24.625 C7.62875 23.81289063 7.2575 23.00078125 6.875 22.1640625 C6 20 6 20 6 18 C5.01 18 4.02 18 3 18 C1.34043892 16.08512183 0.13211641 14.26423282 -1 12 C0.32 11.67 1.64 11.34 3 11 C2.01 10.67 1.02 10.34 0 10 C0.66 10 1.32 10 2 10 C1.65213292 8.02463255 1.65213292 8.02463255 1 6 C0.34 5.67 -0.32 5.34 -1 5 C-0.67 3.35 -0.34 1.7 0 0 Z M3 13 C4 15 4 15 4 15 Z M4 15 C5 17 5 17 5 17 Z " fill="#0C3F1B" transform="translate(185,694)"/>
<path d="M0 0 C0.66 0 1.32 0 2 0 C1.42214146 3.63167692 0.05312904 5.32194392 -2.52734375 7.890625 C-3.23697266 8.59960938 -3.94660156 9.30859375 -4.67773438 10.0390625 C-5.79631836 11.13347656 -5.79631836 11.13347656 -6.9375 12.25 C-7.67935547 12.99507812 -8.42121094 13.74015625 -9.18554688 14.5078125 C-14.73305861 20 -14.73305861 20 -17 20 C-16.44719183 16.32262389 -15.18062192 14.97653445 -12.3125 12.6875 C-8.90888666 9.85217398 -6.03049165 6.90314204 -3.2265625 3.48046875 C-2 2 -2 2 0 0 Z " fill="#185B26" transform="translate(572,639)"/>
<path d="M0 0 C0.66 0 1.32 0 2 0 C4.00850548 11.7760589 5.48935965 23.03787513 5 35 C4.67 35 4.34 35 4 35 C3.42502921 30.98055657 2.85555765 26.96037492 2.29101562 22.93945312 C2.09848986 21.57368312 1.90450229 20.20811831 1.70898438 18.84277344 C1.4270773 16.87230054 1.15098358 14.90099876 0.875 12.9296875 C0.70742188 11.74616699 0.53984375 10.56264648 0.3671875 9.34326172 C0.02143834 6.19519719 -0.06739944 3.16356144 0 0 Z " fill="#083314" transform="translate(855,503)"/>
<path d="M0 0 C0.66 0.33 1.32 0.66 2 1 C0.2718578 3.2281384 -1.45859366 5.45431559 -3.1953125 7.67578125 C-4.52764574 9.39166497 -5.83373842 11.12799904 -7.125 12.875 C-9.22201476 15.25161673 -11.2566572 16.43237554 -14 18 C-16.05582193 19.60869281 -18.02033324 21.29656581 -20 23 C-18.41060574 19.06785699 -15.83657498 16.66979654 -12.8125 13.75 C-8.30766188 9.35190809 -4.05106686 4.8253322 0 0 Z " fill="#0D451A" transform="translate(622,654)"/>
<path d="M0 0 C0.87467857 2.41215705 1.16121886 3.58612472 0.21484375 6.015625 C-0.20667969 6.75296875 -0.62820312 7.4903125 -1.0625 8.25 C-3.90125685 13.54689825 -5.94765694 18.98824561 -7.94360352 24.64160156 C-9.79734804 29.79734804 -9.79734804 29.79734804 -12 32 C-10.67243471 25.18239909 -8.63887199 19.0405185 -6 12.625 C-5.64421875 11.73683594 -5.2884375 10.84867187 -4.921875 9.93359375 C-3.47420205 6.36302726 -2.14603404 3.21905105 0 0 Z " fill="#177B36" transform="translate(204,396)"/>
<path d="M0 0 C3.56764285 1.51376081 5.83706287 3.60513129 8.546875 6.3515625 C9.39121094 7.20234375 10.23554688 8.053125 11.10546875 8.9296875 C12.41451172 10.26386719 12.41451172 10.26386719 13.75 11.625 C14.63816406 12.5221875 15.52632813 13.419375 16.44140625 14.34375 C18.63216969 16.55807004 20.81812763 18.77692435 23 21 C20 21 20 21 18.25415039 19.57885742 C17.62500732 18.92763916 16.99586426 18.2764209 16.34765625 17.60546875 C15.30641602 16.54295898 15.30641602 16.54295898 14.24414062 15.45898438 C13.52419922 14.70939453 12.80425781 13.95980469 12.0625 13.1875 C10.63900137 11.72043796 9.21329184 10.25551725 7.78515625 8.79296875 C7.15488525 8.1383667 6.52461426 7.48376465 5.87524414 6.80932617 C4.02164612 4.93489244 4.02164612 4.93489244 1.76342773 3.38793945 C1.18149658 2.92991943 0.59956543 2.47189941 0 2 C0 1.34 0 0.68 0 0 Z " fill="#9BD375" transform="translate(401,534)"/>
<path d="M0 0 C2.12038635 2.61514317 4.13091744 5.19637616 6 8 C6.99 7.67 7.98 7.34 9 7 C8.95875 7.7425 8.9175 8.485 8.875 9.25 C9.00398134 12.08758952 9.57051222 13.58773938 11 16 C10.01 16 9.02 16 8 16 C6.2109375 13.76953125 6.2109375 13.76953125 4.375 10.8125 C3.76398437 9.84957031 3.15296875 8.88664062 2.5234375 7.89453125 C1.08999876 5.17099764 0.40967607 3.02828123 0 0 Z " fill="#0B3F1B" transform="translate(751,273)"/>
<path d="M0 0 C1.91880461 5.75641383 -0.65420526 11.35858495 -2.5625 16.875 C-2.79646484 17.56335938 -3.03042969 18.25171875 -3.27148438 18.9609375 C-3.84352499 20.64203645 -4.42118456 22.32122163 -5 24 C-6.01843074 20.84703787 -5.95535405 18.9105862 -5.0390625 15.7421875 C-4.81476562 14.95199219 -4.59046875 14.16179688 -4.359375 13.34765625 C-3.99585938 12.12369141 -3.99585938 12.12369141 -3.625 10.875 C-3.39039063 10.05128906 -3.15578125 9.22757813 -2.9140625 8.37890625 C-1.18071308 2.36142616 -1.18071308 2.36142616 0 0 Z " fill="#55B458" transform="translate(540,884)"/>
<path d="M0 0 C4.19113683 1.39704561 5.79770668 4.40438148 8.25 7.875 C8.72179687 8.51308594 9.19359375 9.15117187 9.6796875 9.80859375 C10.87329808 11.48034659 11.94620928 13.23676749 13 15 C12.67 15.99 12.34 16.98 12 18 C9.99224902 15.38084613 7.99515805 12.75375554 6 10.125 C5.42765625 9.37863281 4.8553125 8.63226563 4.265625 7.86328125 C3.72421875 7.14785156 3.1828125 6.43242187 2.625 5.6953125 C2.12226562 5.03547363 1.61953125 4.37563477 1.1015625 3.69580078 C0 2 0 2 0 0 Z " fill="#073012" transform="translate(738,257)"/>
<path d="M0 0 C1.1055189 0.93590504 2.20935453 1.87379858 3.3125 2.8125 C3.92738281 3.33457031 4.54226563 3.85664063 5.17578125 4.39453125 C6.85424679 5.87172469 8.43882034 7.40039131 10 9 C6.66737083 8.61912809 5.13140489 8.10840904 2.5 5.9375 C-0.32466501 3.74838462 -1.52512531 3.60287146 -5 4 C-3.36587557 2.29159719 -2.13093906 1.06546953 0 0 Z " fill="#0D421C" transform="translate(513,24)"/>
<path d="M0 0 C2 3 2 3 1.3203125 6.79296875 C0.93495648 8.26130808 0.53597227 9.72612344 0.125 11.1875 C-0.07480469 11.93708984 -0.27460938 12.68667969 -0.48046875 13.45898438 C-0.97541036 15.30912325 -1.48620476 17.155008 -2 19 C-2.66 18.34 -3.32 17.68 -4 17 C-3.58410304 11.21525141 -2.04747183 5.41117554 0 0 Z " fill="#0B3E1A" transform="translate(180,454)"/>
<path d="M0 0 C0.66 0.33 1.32 0.66 2 1 C-2.10037573 6.24972347 -6.52964787 10.20962911 -12 14 C-9.10740154 7.99912688 -5.14680763 4.09405152 0 0 Z " fill="#0B3D16" transform="translate(480,221)"/>
<path d="M0 0 C0.8125 1.625 0.8125 1.625 1 4 C-3 9.66666667 -3 9.66666667 -7 11 C-5.5140084 6.40693504 -3.14985318 3.56430755 0 0 Z " fill="#0A481B" transform="translate(580,702)"/>
<path d="M0 0 C3.59634744 3.49359465 6.83451967 7.11098131 10 11 C6.77788109 10.41861767 5.06332259 9.49498087 2.75 7.1875 C2.22921875 6.68605469 1.7084375 6.18460938 1.171875 5.66796875 C0 4 0 4 0 0 Z " fill="#0A3D19" transform="translate(655,154)"/>
<path d="M0 0 C0.99 0.33 1.98 0.66 3 1 C2.979375 1.7425 2.95875 2.485 2.9375 3.25 C2.99328688 5.70462279 3.3069904 7.66109261 4 10 C-0.875 5.375 -0.875 5.375 -2 2 C-1.34 2 -0.68 2 0 2 C0 1.34 0 0.68 0 0 Z " fill="#0C461D" transform="translate(717,224)"/>
<path d="M0 0 C0.33 0.66 0.66 1.32 1 2 C-1.24187098 6.90409277 -5.15219004 10.34194505 -9 14 C-9 9.82438593 -7.16647522 8.46042213 -4.5 5.3125 C-3.6646875 4.31863281 -2.829375 3.32476562 -1.96875 2.30078125 C-0.99421875 1.16189453 -0.99421875 1.16189453 0 0 Z " fill="#167C35" transform="translate(322,210)"/>
<path d="M0 0 C0.33 0.66 0.66 1.32 1 2 C-0.07826365 3.27513763 -1.16285519 4.54492569 -2.25 5.8125 C-2.85328125 6.52019531 -3.4565625 7.22789062 -4.078125 7.95703125 C-5.92370398 9.91889671 -7.79945332 11.45669625 -10 13 C-8.48446596 9.52224821 -6.4226544 7.0442016 -3.875 4.25 C-3.15054687 3.45078125 -2.42609375 2.6515625 -1.6796875 1.828125 C-0.84824219 0.92320312 -0.84824219 0.92320312 0 0 Z " fill="#167F37" transform="translate(341,188)"/>
<path d="M0 0 C0.99 0.66 1.98 1.32 3 2 C1.37750059 2.83819158 -0.24808497 3.6704116 -1.875 4.5 C-3.23238281 5.19609375 -3.23238281 5.19609375 -4.6171875 5.90625 C-7 7 -7 7 -9 7 C-8 4 -8 4 -6.15234375 2.83203125 C-5.42144531 2.49558594 -4.69054687 2.15914062 -3.9375 1.8125 C-3.20402344 1.46832031 -2.47054687 1.12414062 -1.71484375 0.76953125 C-1.14894531 0.51558594 -0.58304688 0.26164063 0 0 Z " fill="#0D3E19" transform="translate(536,976)"/>
<path d="M0 0 C0.66 0 1.32 0 2 0 C1.67 1.32 1.34 2.64 1 4 C0.38125 4.04125 -0.2375 4.0825 -0.875 4.125 C-1.57625 4.41375 -2.2775 4.7025 -3 5 C-4.3045656 7.99615946 -4.3045656 7.99615946 -5 11 C-5.33 10.01 -5.66 9.02 -6 8 C-4.22557591 5.00183515 -2.46459429 2.46459429 0 0 Z " fill="#A6DE7E" transform="translate(499,251)"/>
<path d="M0 0 C0.66 0.66 1.32 1.32 2 2 C-1.08290155 6.22797927 -1.08290155 6.22797927 -3 8 C-5.8125 8.375 -5.8125 8.375 -8 8 C-7.195625 7.21625 -6.39125 6.4325 -5.5625 5.625 C-3.01309583 3.28017144 -3.01309583 3.28017144 -2 1 C-1.34 0.67 -0.68 0.34 0 0 Z " fill="#0B421B" transform="translate(323,206)"/>
<path d="M0 0 C0.66 0 1.32 0 2 0 C1.54917531 1.46067199 1.08906463 2.91848032 0.625 4.375 C0.36976563 5.18710937 0.11453125 5.99921875 -0.1484375 6.8359375 C-1 9 -1 9 -3 11 C-4 8 -4 8 -3.22265625 5.95703125 C-2.83980469 5.24933594 -2.45695313 4.54164063 -2.0625 3.8125 C-1.68222656 3.09707031 -1.30195312 2.38164063 -0.91015625 1.64453125 C-0.60980469 1.10183594 -0.30945313 0.55914063 0 0 Z " fill="#0B3A18" transform="translate(833,709)"/>
<path d="M0 0 C0.68359375 1.703125 0.68359375 1.703125 1 4 C-0.21484375 6.359375 -0.21484375 6.359375 -1.9375 8.75 C-2.50339844 9.54921875 -3.06929687 10.3484375 -3.65234375 11.171875 C-4.09707031 11.77515625 -4.54179688 12.3784375 -5 13 C-5.33 12.34 -5.66 11.68 -6 11 C-4.78515625 8.3984375 -4.78515625 8.3984375 -3.0625 5.375 C-2.21365234 3.87066406 -2.21365234 3.87066406 -1.34765625 2.3359375 C-0.90292969 1.56507813 -0.45820312 0.79421875 0 0 Z " fill="#054B1C" transform="translate(778,695)"/>
<path d="M0 0 C0 3 0 3 -1.75 4.82421875 C-2.4925 5.43910156 -3.235 6.05398437 -4 6.6875 C-4.7425 7.31011719 -5.485 7.93273437 -6.25 8.57421875 C-6.8275 9.04472656 -7.405 9.51523438 -8 10 C-8.66 9.67 -9.32 9.34 -10 9 C-8.71142987 7.68445979 -7.41904109 6.37265903 -6.125 5.0625 C-5.04605469 3.96615234 -5.04605469 3.96615234 -3.9453125 2.84765625 C-2 1 -2 1 0 0 Z " fill="#178038" transform="translate(433,94)"/>
<path d="M0 0 C0.66 0.33 1.32 0.66 2 1 C-0.64 3.64 -3.28 6.28 -6 9 C-6.33 8.01 -6.66 7.02 -7 6 C-6.01 5.67 -5.02 5.34 -4 5 C-3.67 4.01 -3.34 3.02 -3 2 C-2.01 1.34 -1.02 0.68 0 0 Z " fill="#0A3918" transform="translate(729,853)"/>
<path d="M0 0 C0 3 0 3 -1.53125 4.60546875 C-2.1809375 5.12753906 -2.830625 5.64960937 -3.5 6.1875 C-4.1496875 6.71730469 -4.799375 7.24710938 -5.46875 7.79296875 C-5.9740625 8.19128906 -6.479375 8.58960938 -7 9 C-7.66 8.67 -8.32 8.34 -9 8 C-6.03 5.36 -3.06 2.72 0 0 Z " fill="#187D37" transform="translate(477,55)"/>
<path d="M0 0 C-1.29299694 2.88437779 -2.65941363 4.87219421 -5 7 C-5.99 6.67 -6.98 6.34 -8 6 C-7.0479279 4.99403703 -6.08812654 3.99538437 -5.125 3 C-4.59132813 2.443125 -4.05765625 1.88625 -3.5078125 1.3125 C-2 0 -2 0 0 0 Z " fill="#0A3817" transform="translate(739,845)"/>
<path d="M0 0 C1 3 1 3 0.25 4.9375 C-1.04403535 7.07265833 -2.4580985 9.03757991 -4 11 C-3.39301257 6.87248551 -1.96189209 3.6678852 0 0 Z " fill="#09501E" transform="translate(786,676)"/>
<path d="M0 0 C3.78383679 0.92493788 5.56693694 1.39371171 7.875 4.625 C8.431875 5.800625 8.431875 5.800625 9 7 C4.58110387 5.64978174 2.65654657 3.73884332 0 0 Z " fill="#0A3E16" transform="translate(590,472)"/>
<path d="M0 0 C2.64 1.98 5.28 3.96 8 6 C7.01 6.33 6.02 6.66 5 7 C2.3125 5.25 2.3125 5.25 0 3 C0 2.01 0 1.02 0 0 Z " fill="#0C3F1A" transform="translate(531,39)"/>
<path d="M0 0 C0.33 0.99 0.66 1.98 1 3 C-1.97 5.475 -1.97 5.475 -5 8 C-5.66 7.67 -6.32 7.34 -7 7 C-4.69 4.69 -2.38 2.38 0 0 Z " fill="#AFE383" transform="translate(435,437)"/>
<path d="M0 0 C0.33 0 0.66 0 1 0 C1 3.63 1 7.26 1 11 C0.67 11 0.34 11 0 11 C0 7.37 0 3.74 0 0 Z " fill="#1A7032" transform="translate(160,565)"/>
<path d="M0 0 C0.33 0 0.66 0 1 0 C1 2.64 1 5.28 1 8 C0.67 8 0.34 8 0 8 C0 5.36 0 2.72 0 0 Z " fill="#196E31" transform="translate(160,577)"/>
<path d="M0 0 C1.32 0.99 2.64 1.98 4 3 C2.68 3 1.36 3 0 3 C0 2.01 0 1.02 0 0 Z " fill="#1B6A31" transform="translate(440,955)"/>
<path d="M0 0 C0.99 0.495 0.99 0.495 2 1 C1.34 2.32 0.68 3.64 0 5 C0 3.35 0 1.7 0 0 Z " fill="#186830" transform="translate(208,751)"/>
<path d="M0 0 C0.66 0.66 1.32 1.32 2 2 C1.625 4.125 1.625 4.125 1 6 C0.67 4.02 0.34 2.04 0 0 Z " fill="#186D32" transform="translate(846,455)"/>
<path d="M0 0 C0.99 0.33 1.98 0.66 3 1 C2.01 1.66 1.02 2.32 0 3 C0 2.01 0 1.02 0 0 Z " fill="#16682F" transform="translate(390,128)"/>
<path d="M0 0 C0.66 0.66 1.32 1.32 2 2 C1.01 2.33 0.02 2.66 -1 3 C-0.67 2.01 -0.34 1.02 0 0 Z " fill="#17672F" transform="translate(233,789)"/>
<path d="M0 0 C0.99 0.495 0.99 0.495 2 1 C2 1.66 2 2.32 2 3 C1.34 3 0.68 3 0 3 C0 2.01 0 1.02 0 0 Z " fill="#186930" transform="translate(210,754)"/>
<path d="M0 0 C0.66 1.32 1.32 2.64 2 4 C1.34 4 0.68 4 0 4 C0 2.68 0 1.36 0 0 Z " fill="#196A32" transform="translate(171,660)"/>
<path d="M0 0 C0.33 0 0.66 0 1 0 C1 1.65 1 3.3 1 5 C0.67 5 0.34 5 0 5 C0 3.35 0 1.7 0 0 Z " fill="#186B31" transform="translate(163,618)"/>
<path d="M0 0 C0.33 0 0.66 0 1 0 C1 1.65 1 3.3 1 5 C0.67 5 0.34 5 0 5 C0 3.35 0 1.7 0 0 Z " fill="#196D32" transform="translate(161,602)"/>
<path d="M0 0 C0.99 0.33 1.98 0.66 3 1 C2.01 1.33 1.02 1.66 0 2 C0 1.34 0 0.68 0 0 Z " fill="#186A30" transform="translate(200,384)"/>
<path d="M0 0 C0.99 0.33 1.98 0.66 3 1 C2.34 1 1.68 1 1 1 C0.67 1.66 0.34 2.32 0 3 C0 2.01 0 1.02 0 0 Z " fill="#186B31" transform="translate(248,304)"/>
<path d="M0 0 C0.99 0.33 1.98 0.66 3 1 C2.67 1.66 2.34 2.32 2 3 C1.34 2.01 0.68 1.02 0 0 Z " fill="#16682F" transform="translate(669,168)"/>
<path d="M0 0 C0.99 0.33 1.98 0.66 3 1 C2.01 1 1.02 1 0 1 C0 0.67 0 0.34 0 0 Z " fill="#186730" transform="translate(415,942)"/>
<path d="M0 0 C0.99 0.33 1.98 0.66 3 1 C2.01 1 1.02 1 0 1 C0 0.67 0 0.34 0 0 Z " fill="#196731" transform="translate(385,924)"/>
<path d="M0 0 C0.99 1.485 0.99 1.485 2 3 C1.34 3 0.68 3 0 3 C0 2.01 0 1.02 0 0 Z " fill="#18662F" transform="translate(369,913)"/>
<path d="M0 0 C0.66 0.66 1.32 1.32 2 2 C1.01 2.495 1.01 2.495 0 3 C0 2.01 0 1.02 0 0 Z " fill="#17662F" transform="translate(337,891)"/>
<path d="M0 0 C0.99 0.495 0.99 0.495 2 1 C1.34 1.66 0.68 2.32 0 3 C0 2.01 0 1.02 0 0 Z " fill="#17632F" transform="translate(304,869)"/>
<path d="M0 0 C0.99 1.485 0.99 1.485 2 3 C1.34 3 0.68 3 0 3 C0 2.01 0 1.02 0 0 Z " fill="#186831" transform="translate(265,827)"/>
<path d="M0 0 C0.99 1.485 0.99 1.485 2 3 C1.34 3 0.68 3 0 3 C0 2.01 0 1.02 0 0 Z " fill="#176730" transform="translate(195,725)"/>
<path d="M0 0 C1 4 1 4 1 4 Z " fill="#186B32" transform="translate(162,610)"/>
<path d="M0 0 C0.33 0.99 0.66 1.98 1 3 C0.34 2.67 -0.32 2.34 -1 2 C-0.67 1.34 -0.34 0.68 0 0 Z " fill="#1A6D30" transform="translate(162,539)"/>
<path d="M0 0 C0.99 0.495 0.99 0.495 2 1 C1.34 1.66 0.68 2.32 0 3 C0 2.01 0 1.02 0 0 Z " fill="#176B32" transform="translate(224,345)"/>
<path d="M0 0 C0.66 0.33 1.32 0.66 2 1 C1.01 1 0.02 1 -1 1 C-0.67 0.67 -0.34 0.34 0 0 Z " fill="#196C32" transform="translate(479,48)"/>
<path d="M0 0 C0.99 0.33 1.98 0.66 3 1 C2.01 1 1.02 1 0 1 C0 0.67 0 0.34 0 0 Z " fill="#196E33" transform="translate(507,24)"/>
<path d="M0 0 C0.66 0 1.32 0 2 0 C1.67 0.66 1.34 1.32 1 2 C0.67 1.34 0.34 0.68 0 0 Z " fill="#186931" transform="translate(425,948)"/>
<path d="" fill="#19682F" transform="translate(0,0)"/>
<path d="" fill="#1A6931" transform="translate(0,0)"/>
<path d="" fill="#1A6931" transform="translate(0,0)"/>
<path d="" fill="#1A6E32" transform="translate(0,0)"/>
<path d="" fill="#1A7132" transform="translate(0,0)"/>
<path d="" fill="#1B6F32" transform="translate(0,0)"/>
<path d="" fill="#1C6C33" transform="translate(0,0)"/>
<path d="" fill="#1B6D34" transform="translate(0,0)"/>
<path d="M0 0 C0.99 0.495 0.99 0.495 2 1 C1.01 1.495 1.01 1.495 0 2 C0 1.34 0 0.68 0 0 Z " fill="#186C31" transform="translate(184,435)"/>
<path d="" fill="#176A31" transform="translate(0,0)"/>
<path d="M0 0 C0.33 0.66 0.66 1.32 1 2 C0.34 1.67 -0.32 1.34 -1 1 C-0.67 0.67 -0.34 0.34 0 0 Z " fill="#15682E" transform="translate(259,289)"/>
<path d="M0 0 C3 1 3 1 3 1 Z " fill="#186A31" transform="translate(748,266)"/>
<path d="M0 0 C0.99 0.495 0.99 0.495 2 1 C1.01 1.495 1.01 1.495 0 2 C0 1.34 0 0.68 0 0 Z " fill="#15692E" transform="translate(686,186)"/>
<path d="M0 0 C3 1 3 1 3 1 Z " fill="#196F32" transform="translate(432,88)"/>
<path d="M0 0 C3 1 3 1 3 1 Z " fill="#186D30" transform="translate(562,64)"/>
<path d="M0 0 C0.99 0.495 0.99 0.495 2 1 C1.01 1.495 1.01 1.495 0 2 C0 1.34 0 0.68 0 0 Z " fill="#186930" transform="translate(460,64)"/>
<path d="M0 0 C2 1 2 1 2 1 Z " fill="#196C30" transform="translate(511,991)"/>
<path d="M0 0 C2 1 2 1 2 1 Z " fill="#196D32" transform="translate(508,990)"/>
<path d="M0 0 C2 1 2 1 2 1 Z " fill="#1A7033" transform="translate(516,989)"/>
<path d="M0 0 C2 1 2 1 2 1 Z " fill="#1C7034" transform="translate(506,989)"/>
<path d="" fill="#1C7134" transform="translate(0,0)"/>
<path d="M0 0 C2 1 2 1 2 1 Z " fill="#1A6E33" transform="translate(518,988)"/>
<path d="M0 0 C2 1 2 1 2 1 Z " fill="#1A6C30" transform="translate(545,975)"/>
<path d="M0 0 C2 1 2 1 2 1 Z " fill="#1A6B32" transform="translate(472,975)"/>
<path d="" fill="#1B6C31" transform="translate(0,0)"/>
<path d="M0 0 C2 1 2 1 2 1 Z " fill="#1A6A32" transform="translate(461,967)"/>
<path d="M0 0 C2 1 2 1 2 1 Z " fill="#1A6A31" transform="translate(459,966)"/>
<path d="M0 0 C2 1 2 1 2 1 Z " fill="#186B31" transform="translate(597,951)"/>
<path d="M0 0 C2 1 2 1 2 1 Z " fill="#1B6E33" transform="translate(608,942)"/>
<path d="" fill="#1B652F" transform="translate(0,0)"/>
<path d="" fill="#186430" transform="translate(0,0)"/>
<path d="M0 0 C2 1 2 1 2 1 Z " fill="#18662D" transform="translate(346,899)"/>
<path d="M0 0 C2 1 2 1 2 1 Z " fill="#1A6A31" transform="translate(683,894)"/>
<path d="M0 0 C2 1 2 1 2 1 Z " fill="#16642D" transform="translate(340,894)"/>
<path d="M0 0 C2 1 2 1 2 1 Z " fill="#17642C" transform="translate(331,887)"/>
<path d="M0 0 C2 1 2 1 2 1 Z " fill="#16632F" transform="translate(300,862)"/>
<path d="" fill="#1A662E" transform="translate(0,0)"/>
<path d="M0 0 C2 1 2 1 2 1 Z " fill="#19672F" transform="translate(289,853)"/>
<path d="" fill="#18632F" transform="translate(0,0)"/>
<path d="M0 0 C2 1 2 1 2 1 Z " fill="#18642E" transform="translate(251,813)"/>
<path d="M0 0 C2 1 2 1 2 1 Z " fill="#19682E" transform="translate(773,811)"/>
<path d="" fill="#186530" transform="translate(0,0)"/>
<path d="" fill="#1A672F" transform="translate(0,0)"/>
<path d="" fill="#196730" transform="translate(0,0)"/>
<path d="" fill="#176931" transform="translate(0,0)"/>
<path d="" fill="#1A672F" transform="translate(0,0)"/>
<path d="" fill="#186930" transform="translate(0,0)"/>
<path d="" fill="#1B6A30" transform="translate(0,0)"/>
<path d="M0 0 C2 1 2 1 2 1 Z " fill="#196831" transform="translate(192,725)"/>
<path d="" fill="#196730" transform="translate(0,0)"/>
<path d="M0 0 C2 1 2 1 2 1 Z " fill="#186732" transform="translate(192,722)"/>
<path d="" fill="#1B6B33" transform="translate(0,0)"/>
<path d="" fill="#196A2F" transform="translate(0,0)"/>
<path d="" fill="#1A6930" transform="translate(0,0)"/>
<path d="" fill="#1A682F" transform="translate(0,0)"/>
<path d="" fill="#1B6C32" transform="translate(0,0)"/>
<path d="" fill="#1A6D31" transform="translate(0,0)"/>
<path d="" fill="#186B32" transform="translate(0,0)"/>
<path d="" fill="#196C33" transform="translate(0,0)"/>
<path d="" fill="#1A7134" transform="translate(0,0)"/>
<path d="" fill="#186D32" transform="translate(0,0)"/>
<path d="" fill="#1A7033" transform="translate(0,0)"/>
<path d="" fill="#1A7135" transform="translate(0,0)"/>
<path d="" fill="#186F31" transform="translate(0,0)"/>
<path d="" fill="#196C33" transform="translate(0,0)"/>
<path d="" fill="#196D33" transform="translate(0,0)"/>
<path d="" fill="#1A6E33" transform="translate(0,0)"/>
<path d="" fill="#1A6E33" transform="translate(0,0)"/>
<path d="" fill="#196E32" transform="translate(0,0)"/>
<path d="" fill="#196C31" transform="translate(0,0)"/>
<path d="M0 0 C2 1 2 1 2 1 Z " fill="#186C34" transform="translate(844,449)"/>
<path d="" fill="#196D32" transform="translate(0,0)"/>
<path d="" fill="#196B31" transform="translate(0,0)"/>
<path d="" fill="#186A31" transform="translate(0,0)"/>
<path d="" fill="#1B6C33" transform="translate(0,0)"/>
<path d="" fill="#1A6F34" transform="translate(0,0)"/>
<path d="M0 0 C2 1 2 1 2 1 Z " fill="#1B6E34" transform="translate(200,392)"/>
<path d="" fill="#196E31" transform="translate(0,0)"/>
<path d="" fill="#186A31" transform="translate(0,0)"/>
<path d="" fill="#18682F" transform="translate(0,0)"/>
<path d="M0 0 C2 1 2 1 2 1 Z " fill="#196931" transform="translate(209,368)"/>
<path d="" fill="#196A31" transform="translate(0,0)"/>
<path d="M0 0 C2 1 2 1 2 1 Z " fill="#176930" transform="translate(217,352)"/>
<path d="M0 0 C2 1 2 1 2 1 Z " fill="#18692F" transform="translate(793,336)"/>
<path d="" fill="#196C32" transform="translate(0,0)"/>
<path d="" fill="#196B31" transform="translate(0,0)"/>
<path d="" fill="#186B31" transform="translate(0,0)"/>
<path d="" fill="#196D2F" transform="translate(0,0)"/>
<path d="" fill="#16682F" transform="translate(0,0)"/>
<path d="M0 0 C2 1 2 1 2 1 Z " fill="#176A30" transform="translate(741,256)"/>
<path d="" fill="#18672E" transform="translate(0,0)"/>
<path d="M0 0 C2 1 2 1 2 1 Z " fill="#176630" transform="translate(292,241)"/>
<path d="M0 0 C2 1 2 1 2 1 Z " fill="#15682E" transform="translate(298,234)"/>
<path d="" fill="#17652F" transform="translate(0,0)"/>
<path d="" fill="#1A6830" transform="translate(0,0)"/>
<path d="M0 0 C2 1 2 1 2 1 Z " fill="#166730" transform="translate(321,200)"/>
<path d="M0 0 C2 1 2 1 2 1 Z " fill="#16682E" transform="translate(328,194)"/>
<path d="" fill="#15672F" transform="translate(0,0)"/>
<path d="M0 0 C2 1 2 1 2 1 Z " fill="#176931" transform="translate(337,186)"/>
<path d="M0 0 C2 1 2 1 2 1 Z " fill="#166C30" transform="translate(352,168)"/>
<path d="" fill="#176A2F" transform="translate(0,0)"/>
<path d="" fill="#186A2F" transform="translate(0,0)"/>
<path d="" fill="#15672F" transform="translate(0,0)"/>
<path d="M0 0 C2 1 2 1 2 1 Z " fill="#176831" transform="translate(581,80)"/>
<path d="M0 0 C2 1 2 1 2 1 Z " fill="#196B30" transform="translate(442,80)"/>
<path d="M0 0 C2 1 2 1 2 1 Z " fill="#166F32" transform="translate(571,72)"/>
<path d="M0 0 C2 1 2 1 2 1 Z " fill="#186D30" transform="translate(456,68)"/>
<path d="M0 0 C2 1 2 1 2 1 Z " fill="#1A6E32" transform="translate(489,40)"/>
<path d="" fill="#1A6C31" transform="translate(0,0)"/>
<path d="M0 0 C2 1 2 1 2 1 Z " fill="#1A6F31" transform="translate(505,27)"/>
<path d="" fill="#1C6E33" transform="translate(0,0)"/>
<path d="" fill="#1B6E31" transform="translate(0,0)"/>
<path d="" fill="#1B6B32" transform="translate(0,0)"/>
<path d="" fill="#1C7036" transform="translate(0,0)"/>
<path d="" fill="#1A6D33" transform="translate(0,0)"/>
<path d="" fill="#1C6F35" transform="translate(0,0)"/>
<path d="" fill="#1A6E33" transform="translate(0,0)"/>
<path d="" fill="#1C6F31" transform="translate(0,0)"/>
<path d="" fill="#1C6E33" transform="translate(0,0)"/>
<path d="" fill="#1B7233" transform="translate(0,0)"/>
<path d="" fill="#1A6D33" transform="translate(0,0)"/>
<path d="" fill="#196B32" transform="translate(0,0)"/>
<path d="" fill="#1A6D32" transform="translate(0,0)"/>
<path d="" fill="#1B6731" transform="translate(0,0)"/>
<path d="" fill="#196A31" transform="translate(0,0)"/>
<path d="" fill="#000000" transform="translate(0,0)"/>
<path d="" fill="#1B6C33" transform="translate(0,0)"/>
<path d="" fill="#1B6B30" transform="translate(0,0)"/>
<path d="" fill="#1B6C33" transform="translate(0,0)"/>
<path d="" fill="#1A6830" transform="translate(0,0)"/>
<path d="" fill="#1A7030" transform="translate(0,0)"/>
<path d="" fill="#1A6B32" transform="translate(0,0)"/>
<path d="" fill="#1B6E31" transform="translate(0,0)"/>
<path d="" fill="#1C6D33" transform="translate(0,0)"/>
<path d="" fill="#196B32" transform="translate(0,0)"/>
<path d="" fill="#1A6E31" transform="translate(0,0)"/>
<path d="" fill="#1D6B31" transform="translate(0,0)"/>
<path d="" fill="#17642F" transform="translate(0,0)"/>
<path d="" fill="#18642F" transform="translate(0,0)"/>
<path d="" fill="#196731" transform="translate(0,0)"/>
<path d="" fill="#1A692F" transform="translate(0,0)"/>
<path d="" fill="#1E6931" transform="translate(0,0)"/>
<path d="" fill="#196A2F" transform="translate(0,0)"/>
<path d="" fill="#16662F" transform="translate(0,0)"/>
<path d="" fill="#19682E" transform="translate(0,0)"/>
<path d="" fill="#1A6830" transform="translate(0,0)"/>
<path d="" fill="#0A3215" transform="translate(0,0)"/>
<path d="" fill="#196730" transform="translate(0,0)"/>
<path d="" fill="#186330" transform="translate(0,0)"/>
<path d="" fill="#196A30" transform="translate(0,0)"/>
<path d="" fill="#1B6931" transform="translate(0,0)"/>
<path d="" fill="#1A692E" transform="translate(0,0)"/>
<path d="" fill="#196732" transform="translate(0,0)"/>
<path d="" fill="#18632E" transform="translate(0,0)"/>
<path d="" fill="#1C6A31" transform="translate(0,0)"/>
<path d="" fill="#1A672E" transform="translate(0,0)"/>
<path d="" fill="#1A6B2F" transform="translate(0,0)"/>
<path d="" fill="#1B6331" transform="translate(0,0)"/>
<path d="" fill="#19682F" transform="translate(0,0)"/>
<path d="" fill="#196830" transform="translate(0,0)"/>
<path d="" fill="#186930" transform="translate(0,0)"/>
<path d="" fill="#186730" transform="translate(0,0)"/>
<path d="" fill="#19652E" transform="translate(0,0)"/>
<path d="" fill="#196730" transform="translate(0,0)"/>
<path d="" fill="#186931" transform="translate(0,0)"/>
<path d="" fill="#19652F" transform="translate(0,0)"/>
<path d="" fill="#1A6630" transform="translate(0,0)"/>
<path d="" fill="#176630" transform="translate(0,0)"/>
<path d="" fill="#176831" transform="translate(0,0)"/>
<path d="" fill="#1C6833" transform="translate(0,0)"/>
<path d="" fill="#146A2B" transform="translate(0,0)"/>
<path d="" fill="#17682C" transform="translate(0,0)"/>
<path d="" fill="#1B662F" transform="translate(0,0)"/>
<path d="" fill="#1C6730" transform="translate(0,0)"/>
<path d="" fill="#1C6A31" transform="translate(0,0)"/>
<path d="" fill="#18652E" transform="translate(0,0)"/>
<path d="" fill="#196330" transform="translate(0,0)"/>
<path d="" fill="#19622F" transform="translate(0,0)"/>
<path d="" fill="#156630" transform="translate(0,0)"/>
<path d="" fill="#176A2E" transform="translate(0,0)"/>
<path d="" fill="#17632E" transform="translate(0,0)"/>
<path d="" fill="#19642F" transform="translate(0,0)"/>
<path d="" fill="#176430" transform="translate(0,0)"/>
<path d="" fill="#1A6A30" transform="translate(0,0)"/>
<path d="" fill="#196D31" transform="translate(0,0)"/>
<path d="" fill="#19682D" transform="translate(0,0)"/>
<path d="" fill="#17682F" transform="translate(0,0)"/>
<path d="" fill="#1B6B32" transform="translate(0,0)"/>
<path d="" fill="#166830" transform="translate(0,0)"/>
<path d="" fill="#18682E" transform="translate(0,0)"/>
<path d="" fill="#196C31" transform="translate(0,0)"/>
<path d="" fill="#19622D" transform="translate(0,0)"/>
<path d="" fill="#1A6731" transform="translate(0,0)"/>
<path d="" fill="#1B642D" transform="translate(0,0)"/>
<path d="" fill="#1B682E" transform="translate(0,0)"/>
<path d="" fill="#19672F" transform="translate(0,0)"/>
<path d="" fill="#1A6A31" transform="translate(0,0)"/>
<path d="" fill="#176D30" transform="translate(0,0)"/>
<path d="" fill="#176630" transform="translate(0,0)"/>
<path d="" fill="#186630" transform="translate(0,0)"/>
<path d="" fill="#187030" transform="translate(0,0)"/>
<path d="" fill="#166430" transform="translate(0,0)"/>
<path d="" fill="#19642D" transform="translate(0,0)"/>
<path d="" fill="#17642F" transform="translate(0,0)"/>
<path d="" fill="#176732" transform="translate(0,0)"/>
<path d="" fill="#186C2F" transform="translate(0,0)"/>
<path d="" fill="#176B2F" transform="translate(0,0)"/>
<path d="" fill="#16632E" transform="translate(0,0)"/>
<path d="" fill="#1B6B32" transform="translate(0,0)"/>
<path d="" fill="#19682F" transform="translate(0,0)"/>
<path d="" fill="#17662E" transform="translate(0,0)"/>
<path d="" fill="#19642E" transform="translate(0,0)"/>
<path d="" fill="#1B672C" transform="translate(0,0)"/>
<path d="" fill="#176430" transform="translate(0,0)"/>
<path d="" fill="#17672F" transform="translate(0,0)"/>
<path d="" fill="#17672D" transform="translate(0,0)"/>
<path d="" fill="#166630" transform="translate(0,0)"/>
<path d="" fill="#196530" transform="translate(0,0)"/>
<path d="" fill="#186630" transform="translate(0,0)"/>
<path d="" fill="#166830" transform="translate(0,0)"/>
<path d="" fill="#18672D" transform="translate(0,0)"/>
<path d="" fill="#1D692F" transform="translate(0,0)"/>
<path d="" fill="#1B652E" transform="translate(0,0)"/>
<path d="" fill="#1C6B30" transform="translate(0,0)"/>
<path d="" fill="#196A2F" transform="translate(0,0)"/>
<path d="" fill="#19662C" transform="translate(0,0)"/>
<path d="" fill="#186830" transform="translate(0,0)"/>
<path d="" fill="#196630" transform="translate(0,0)"/>
<path d="" fill="#18642F" transform="translate(0,0)"/>
<path d="" fill="#1A6931" transform="translate(0,0)"/>
<path d="" fill="#176A30" transform="translate(0,0)"/>
<path d="" fill="#18682E" transform="translate(0,0)"/>
<path d="" fill="#19682F" transform="translate(0,0)"/>
<path d="" fill="#196831" transform="translate(0,0)"/>
<path d="" fill="#1A6730" transform="translate(0,0)"/>
<path d="" fill="#1A6930" transform="translate(0,0)"/>
<path d="" fill="#1C6731" transform="translate(0,0)"/>
<path d="" fill="#1A6930" transform="translate(0,0)"/>
<path d="" fill="#196830" transform="translate(0,0)"/>
<path d="" fill="#1A6632" transform="translate(0,0)"/>
<path d="" fill="#196A30" transform="translate(0,0)"/>
<path d="" fill="#1B6930" transform="translate(0,0)"/>
<path d="" fill="#1B6D30" transform="translate(0,0)"/>
<path d="" fill="#18662F" transform="translate(0,0)"/>
<path d="" fill="#18692E" transform="translate(0,0)"/>
<path d="" fill="#16672F" transform="translate(0,0)"/>
<path d="" fill="#1C6E31" transform="translate(0,0)"/>
<path d="" fill="#1A6830" transform="translate(0,0)"/>
<path d="" fill="#196730" transform="translate(0,0)"/>
<path d="" fill="#18682E" transform="translate(0,0)"/>
<path d="" fill="#1D6B30" transform="translate(0,0)"/>
<path d="" fill="#186A31" transform="translate(0,0)"/>
<path d="" fill="#1A682F" transform="translate(0,0)"/>
<path d="" fill="#1B6A30" transform="translate(0,0)"/>
<path d="" fill="#176630" transform="translate(0,0)"/>
<path d="" fill="#196631" transform="translate(0,0)"/>
<path d="" fill="#196B33" transform="translate(0,0)"/>
<path d="" fill="#1A692F" transform="translate(0,0)"/>
<path d="" fill="#186732" transform="translate(0,0)"/>
<path d="" fill="#1B6930" transform="translate(0,0)"/>
<path d="" fill="#186C2F" transform="translate(0,0)"/>
<path d="" fill="#1A672F" transform="translate(0,0)"/>
<path d="" fill="#1A6D32" transform="translate(0,0)"/>
<path d="" fill="#176B30" transform="translate(0,0)"/>
<path d="" fill="#176B31" transform="translate(0,0)"/>
<path d="" fill="#18662F" transform="translate(0,0)"/>
<path d="" fill="#1D6C34" transform="translate(0,0)"/>
<path d="" fill="#196B32" transform="translate(0,0)"/>
<path d="" fill="#197030" transform="translate(0,0)"/>
<path d="" fill="#1A7033" transform="translate(0,0)"/>
<path d="" fill="#1B6D32" transform="translate(0,0)"/>
<path d="" fill="#186C31" transform="translate(0,0)"/>
<path d="" fill="#1A6D33" transform="translate(0,0)"/>
<path d="" fill="#1B6C31" transform="translate(0,0)"/>
<path d="" fill="#1C7034" transform="translate(0,0)"/>
<path d="" fill="#197132" transform="translate(0,0)"/>
<path d="" fill="#1C7136" transform="translate(0,0)"/>
<path d="" fill="#1A7034" transform="translate(0,0)"/>
<path d="" fill="#1B7236" transform="translate(0,0)"/>
<path d="" fill="#1B7035" transform="translate(0,0)"/>
<path d="" fill="#1A7033" transform="translate(0,0)"/>
<path d="" fill="#1C7033" transform="translate(0,0)"/>
<path d="" fill="#1B6F32" transform="translate(0,0)"/>
<path d="" fill="#1B6E34" transform="translate(0,0)"/>
<path d="" fill="#186C32" transform="translate(0,0)"/>
<path d="" fill="#1A6F30" transform="translate(0,0)"/>
<path d="" fill="#186C31" transform="translate(0,0)"/>
<path d="" fill="#1A6D34" transform="translate(0,0)"/>
<path d="" fill="#1A6D33" transform="translate(0,0)"/>
<path d="" fill="#1B7336" transform="translate(0,0)"/>
<path d="" fill="#166C32" transform="translate(0,0)"/>
<path d="" fill="#196D32" transform="translate(0,0)"/>
<path d="" fill="#1C6E35" transform="translate(0,0)"/>
<path d="" fill="#196D31" transform="translate(0,0)"/>
<path d="" fill="#196C32" transform="translate(0,0)"/>
<path d="" fill="#1C7034" transform="translate(0,0)"/>
<path d="" fill="#196B30" transform="translate(0,0)"/>
<path d="" fill="#1C6C31" transform="translate(0,0)"/>
<path d="" fill="#186C33" transform="translate(0,0)"/>
<path d="" fill="#166B31" transform="translate(0,0)"/>
<path d="" fill="#186B32" transform="translate(0,0)"/>
<path d="" fill="#1B6A31" transform="translate(0,0)"/>
<path d="" fill="#196B32" transform="translate(0,0)"/>
<path d="" fill="#1B6B32" transform="translate(0,0)"/>
<path d="" fill="#186D31" transform="translate(0,0)"/>
<path d="" fill="#186A31" transform="translate(0,0)"/>
<path d="" fill="#196E34" transform="translate(0,0)"/>
<path d="" fill="#186C32" transform="translate(0,0)"/>
<path d="" fill="#196C32" transform="translate(0,0)"/>
<path d="" fill="#1B6C32" transform="translate(0,0)"/>
<path d="" fill="#1A6932" transform="translate(0,0)"/>
<path d="" fill="#186A33" transform="translate(0,0)"/>
<path d="" fill="#1A6D32" transform="translate(0,0)"/>
<path d="" fill="#1A6A32" transform="translate(0,0)"/>
<path d="" fill="#1A6932" transform="translate(0,0)"/>
<path d="" fill="#196A30" transform="translate(0,0)"/>
<path d="" fill="#1A6C33" transform="translate(0,0)"/>
<path d="" fill="#1C6B31" transform="translate(0,0)"/>
<path d="" fill="#1C6F34" transform="translate(0,0)"/>
<path d="" fill="#1A6C34" transform="translate(0,0)"/>
<path d="" fill="#1C6D34" transform="translate(0,0)"/>
<path d="" fill="#1A6C31" transform="translate(0,0)"/>
<path d="" fill="#1C6732" transform="translate(0,0)"/>
<path d="" fill="#176C30" transform="translate(0,0)"/>
<path d="" fill="#176B31" transform="translate(0,0)"/>
<path d="" fill="#186930" transform="translate(0,0)"/>
<path d="" fill="#14692F" transform="translate(0,0)"/>
<path d="" fill="#156830" transform="translate(0,0)"/>
<path d="" fill="#166830" transform="translate(0,0)"/>
<path d="" fill="#1A6731" transform="translate(0,0)"/>
<path d="" fill="#196A31" transform="translate(0,0)"/>
<path d="" fill="#186630" transform="translate(0,0)"/>
<path d="" fill="#1C6D33" transform="translate(0,0)"/>
<path d="" fill="#176932" transform="translate(0,0)"/>
<path d="" fill="#186730" transform="translate(0,0)"/>
<path d="" fill="#186931" transform="translate(0,0)"/>
<path d="" fill="#196A31" transform="translate(0,0)"/>
<path d="" fill="#1A6A33" transform="translate(0,0)"/>
<path d="" fill="#18682F" transform="translate(0,0)"/>
<path d="" fill="#176C33" transform="translate(0,0)"/>
<path d="" fill="#176730" transform="translate(0,0)"/>
<path d="" fill="#196830" transform="translate(0,0)"/>
<path d="" fill="#156930" transform="translate(0,0)"/>
<path d="" fill="#186D30" transform="translate(0,0)"/>
<path d="" fill="#17662F" transform="translate(0,0)"/>
<path d="" fill="#176A32" transform="translate(0,0)"/>
<path d="" fill="#196A30" transform="translate(0,0)"/>
<path d="" fill="#19652D" transform="translate(0,0)"/>
<path d="" fill="#1B6930" transform="translate(0,0)"/>
<path d="" fill="#186F31" transform="translate(0,0)"/>
<path d="" fill="#16682E" transform="translate(0,0)"/>
<path d="" fill="#196A30" transform="translate(0,0)"/>
<path d="" fill="#186831" transform="translate(0,0)"/>
<path d="" fill="#166931" transform="translate(0,0)"/>
<path d="" fill="#1A6C31" transform="translate(0,0)"/>
<path d="" fill="#16672F" transform="translate(0,0)"/>
<path d="" fill="#166930" transform="translate(0,0)"/>
<path d="" fill="#196730" transform="translate(0,0)"/>
<path d="" fill="#176630" transform="translate(0,0)"/>
<path d="" fill="#19662D" transform="translate(0,0)"/>
<path d="" fill="#186831" transform="translate(0,0)"/>
<path d="" fill="#16682F" transform="translate(0,0)"/>
<path d="" fill="#186A30" transform="translate(0,0)"/>
<path d="" fill="#196831" transform="translate(0,0)"/>
<path d="" fill="#1A6931" transform="translate(0,0)"/>
<path d="" fill="#176A30" transform="translate(0,0)"/>
<path d="" fill="#16692F" transform="translate(0,0)"/>
<path d="" fill="#15652D" transform="translate(0,0)"/>
<path d="" fill="#146E32" transform="translate(0,0)"/>
<path d="" fill="#16692F" transform="translate(0,0)"/>
<path d="" fill="#18672F" transform="translate(0,0)"/>
<path d="" fill="#18692F" transform="translate(0,0)"/>
<path d="" fill="#17682E" transform="translate(0,0)"/>
<path d="" fill="#166730" transform="translate(0,0)"/>
<path d="" fill="#19692F" transform="translate(0,0)"/>
<path d="" fill="#13682D" transform="translate(0,0)"/>
<path d="" fill="#186E31" transform="translate(0,0)"/>
<path d="" fill="#176A2E" transform="translate(0,0)"/>
<path d="" fill="#17662E" transform="translate(0,0)"/>
<path d="" fill="#166C30" transform="translate(0,0)"/>
<path d="" fill="#14662E" transform="translate(0,0)"/>
<path d="" fill="#176A30" transform="translate(0,0)"/>
<path d="" fill="#176D31" transform="translate(0,0)"/>
<path d="" fill="#166730" transform="translate(0,0)"/>
<path d="" fill="#17682F" transform="translate(0,0)"/>
<path d="" fill="#196A30" transform="translate(0,0)"/>
<path d="" fill="#166A2F" transform="translate(0,0)"/>
<path d="" fill="#156831" transform="translate(0,0)"/>
<path d="" fill="#156830" transform="translate(0,0)"/>
<path d="" fill="#176A2F" transform="translate(0,0)"/>
<path d="" fill="#186A2F" transform="translate(0,0)"/>
<path d="" fill="#1A6830" transform="translate(0,0)"/>
<path d="" fill="#176B31" transform="translate(0,0)"/>
<path d="" fill="#18662F" transform="translate(0,0)"/>
<path d="" fill="#196930" transform="translate(0,0)"/>
<path d="" fill="#176B2D" transform="translate(0,0)"/>
<path d="" fill="#1A6D2D" transform="translate(0,0)"/>
<path d="" fill="#18662F" transform="translate(0,0)"/>
<path d="" fill="#196833" transform="translate(0,0)"/>
<path d="" fill="#196731" transform="translate(0,0)"/>
<path d="" fill="#166A2F" transform="translate(0,0)"/>
<path d="" fill="#196A30" transform="translate(0,0)"/>
<path d="" fill="#15662F" transform="translate(0,0)"/>
<path d="" fill="#14672E" transform="translate(0,0)"/>
<path d="" fill="#18682F" transform="translate(0,0)"/>
<path d="" fill="#1C6E33" transform="translate(0,0)"/>
<path d="" fill="#176831" transform="translate(0,0)"/>
<path d="" fill="#176831" transform="translate(0,0)"/>
<path d="" fill="#17642D" transform="translate(0,0)"/>
<path d="" fill="#156731" transform="translate(0,0)"/>
<path d="" fill="#1C6E34" transform="translate(0,0)"/>
<path d="" fill="#18672F" transform="translate(0,0)"/>
<path d="" fill="#196A30" transform="translate(0,0)"/>
<path d="" fill="#156C30" transform="translate(0,0)"/>
<path d="" fill="#16652F" transform="translate(0,0)"/>
<path d="" fill="#1A692F" transform="translate(0,0)"/>
<path d="" fill="#196930" transform="translate(0,0)"/>
<path d="" fill="#196C30" transform="translate(0,0)"/>
<path d="" fill="#176930" transform="translate(0,0)"/>
<path d="" fill="#1B6930" transform="translate(0,0)"/>
<path d="" fill="#1A6B30" transform="translate(0,0)"/>
<path d="" fill="#1B6E32" transform="translate(0,0)"/>
<path d="" fill="#196B31" transform="translate(0,0)"/>
<path d="" fill="#1A6C31" transform="translate(0,0)"/>
<path d="" fill="#186B30" transform="translate(0,0)"/>
<path d="" fill="#15692F" transform="translate(0,0)"/>
<path d="" fill="#156E2F" transform="translate(0,0)"/>
<path d="" fill="#196D30" transform="translate(0,0)"/>
<path d="" fill="#186E32" transform="translate(0,0)"/>
<path d="" fill="#1A6B31" transform="translate(0,0)"/>
<path d="" fill="#1A6B31" transform="translate(0,0)"/>
<path d="" fill="#1A6A31" transform="translate(0,0)"/>
<path d="" fill="#186D32" transform="translate(0,0)"/>
<path d="" fill="#1B6B30" transform="translate(0,0)"/>
<path d="" fill="#186B32" transform="translate(0,0)"/>
<path d="" fill="#1B6B32" transform="translate(0,0)"/>
<path d="" fill="#1B6E31" transform="translate(0,0)"/>
<path d="" fill="#196A31" transform="translate(0,0)"/>
<path d="" fill="#196A32" transform="translate(0,0)"/>
<path d="" fill="#1B6E33" transform="translate(0,0)"/>
<path d="" fill="#196C32" transform="translate(0,0)"/>
<path d="" fill="#1B6C30" transform="translate(0,0)"/>
<path d="" fill="#186D32" transform="translate(0,0)"/>
<path d="" fill="#186D31" transform="translate(0,0)"/>
<path d="" fill="#196831" transform="translate(0,0)"/>
<path d="" fill="#1D7032" transform="translate(0,0)"/>
<path d="" fill="#196D33" transform="translate(0,0)"/>
<path d="" fill="#1B6E30" transform="translate(0,0)"/>
</svg>
